<svg width="283" height="324" fill="none" xmlns="http://www.w3.org/2000/svg"><g clip-path="url(#a)"><path d="m243.247 271.264-34.173-19.607 39.751-22.759 34.173 19.577-39.751 22.789Z" fill="#9AA9AD" style="mix-blend-mode:multiply"/><path d="m187.352 241.134 12.049 6.914a15.506 15.506 0 0 0 13.835 0l26.84-15.295a15.493 15.493 0 0 1 6.918-1.628 15.5 15.5 0 0 1 6.918 1.628l2.157 1.224a15.508 15.508 0 0 0 13.804 0l3.082-1.805c3.821-2.203 3.852-5.751 0-7.923l-27.887-16.243a15.512 15.512 0 0 0-13.805 0l-43.88 25.206c-3.821 2.325-3.852 5.751-.031 7.922Z" fill="#9AA9AD" style="mix-blend-mode:multiply"/><path d="M267.777 226.666a2.512 2.512 0 0 1-2.188 0c-.616-.337-.647-.887 0-1.254a2.379 2.379 0 0 1 2.188 0 .674.674 0 0 1 .313 1.007.674.674 0 0 1-.313.247Z" fill="#0E0E0E"/><path d="m265.098 226.085.061-1.316 2.866-.061.154 1.285-3.081.092Z" fill="#0E0E0E"/><path d="M267.624 225.288a2.161 2.161 0 0 1-2.034 0 .609.609 0 0 1 0-1.162 2.353 2.353 0 0 1 2.034 0c.462.306.462.826 0 1.162Z" fill="#242424"/><path d="M210.093 250.28a2.39 2.39 0 0 1-2.188 0c-.616-.306-.647-.856 0-1.254a2.512 2.512 0 0 1 2.188 0c.555.337.586.887 0 1.254Z" fill="#0E0E0E"/><path d="m207.41 249.73.062-1.346 2.866-.03.154 1.254-3.082.122Z" fill="#0E0E0E"/><path d="M209.938 248.934a2.268 2.268 0 0 1-2.034 0 .61.61 0 0 1 0-1.163 2.271 2.271 0 0 1 2.034 0c.524.306.555.826 0 1.163Z" fill="#242424"/><path d="M188.183 238.075a2.354 2.354 0 0 1-2.157-.244.643.643 0 0 1-.325-.991.643.643 0 0 1 .325-.233 2.423 2.423 0 0 1 2.188.245c.678.398.616.948-.031 1.223Z" fill="#0E0E0E"/><path d="m185.658 237.096.247-1.284 2.835.397-.031 1.285-3.051-.398Z" fill="#0E0E0E"/><path d="M188.246 236.73a2.24 2.24 0 0 1-2.003-.245.61.61 0 0 1 0-1.131 2.288 2.288 0 0 1 2.034.214c.617.397.586.917-.031 1.162Z" fill="#242424"/><path d="M236.099 208.373a2.451 2.451 0 0 1-2.157-.245c-.555-.428-.493-.979 0-1.254a2.52 2.52 0 0 1 2.188.245c.678.428.616.887-.031 1.254Z" fill="#0E0E0E"/><path d="m233.574 207.394.247-1.315 2.835.398-.031 1.284-3.051-.367Z" fill="#0E0E0E"/><path d="M236.193 206.997a2.27 2.27 0 0 1-2.003-.214c-.523-.398-.462-.918 0-1.163a2.395 2.395 0 0 1 2.034.214c.616.398.555.918-.031 1.163Z" fill="#242424"/><path d="m265.344 224.555-4.345-39.093a9.697 9.697 0 0 0-1.404-5.053 9.799 9.799 0 0 0-3.835-3.604l-5.639-3.059a3.352 3.352 0 0 0-3.081 0c-.444.216-.833.53-1.137.916a3.229 3.229 0 0 0-.619 1.317l-8.998 30.589a.827.827 0 0 1-.396.48.839.839 0 0 1-.621.071l-.74-.214a.799.799 0 0 1-.481-.376.788.788 0 0 1-.073-.603l8.997-30.589a5.619 5.619 0 0 1 1.145-2.301 5.657 5.657 0 0 1 2.053-1.557 5.714 5.714 0 0 1 5.03.187l5.701 3.059a12.292 12.292 0 0 1 4.638 4.449 12.168 12.168 0 0 1 1.74 6.166l4.314 38.94c.026.271-.056.541-.229.753a1.046 1.046 0 0 1-.695.378h-.308a1.01 1.01 0 0 1-1.017-.856Z" fill="#A3A3A3"/><path d="m266.698 225.35-4.437-40.041a10.557 10.557 0 0 0-1.51-5.328 10.658 10.658 0 0 0-4.006-3.849l-5.731-3.059a4.07 4.07 0 0 0-3.575 0c-.575.247-1.08.63-1.472 1.115a3.803 3.803 0 0 0-.777 1.669l-9.245 31.262-.832-.245 9.245-31.262a4.814 4.814 0 0 1 1.009-1.967 4.869 4.869 0 0 1 1.785-1.317 4.9 4.9 0 0 1 4.324.225l5.7 3.059a11.39 11.39 0 0 1 4.378 4.183 11.274 11.274 0 0 1 1.6 5.82l4.438 39.98-.894-.245Z" fill="#E1E1E1"/><path d="m192.343 202.255 11 6.118a13.983 13.983 0 0 0 12.573 0l24.436-13.887a14.042 14.042 0 0 1 12.603 0l1.972 1.131a13.939 13.939 0 0 0 6.301 1.504 13.94 13.94 0 0 0 6.302-1.504l2.866-1.621a3.846 3.846 0 0 0 1.87-1.396 3.806 3.806 0 0 0 0-4.426 3.854 3.854 0 0 0-1.87-1.397l-25.515-14.621a13.887 13.887 0 0 0-12.572 0l-40.059 22.911a3.846 3.846 0 0 0-1.822 1.423 3.801 3.801 0 0 0 .056 4.389 3.85 3.85 0 0 0 1.859 1.376Z" fill="#8C2F26"/><path d="m273.047 180.476-10.076 1.346-18.026-10.217a13.983 13.983 0 0 0-12.573 0l-32.694 18.751-9.922 1.316v6.913c.162.665.474 1.286.912 1.816a4.59 4.59 0 0 0 1.615 1.243l11.093 6.362a13.979 13.979 0 0 0 12.572 0l24.405-14.009a13.943 13.943 0 0 1 12.603 0l1.972 1.131a14.05 14.05 0 0 0 12.604 0l2.865-1.651a4.681 4.681 0 0 0 1.625-1.245 4.645 4.645 0 0 0 .933-1.814l.092-9.942Z" fill="#9E4036"/><path d="m192.344 197.178 11.031 6.302a13.996 13.996 0 0 0 12.573 0l24.405-14.041a13.95 13.95 0 0 1 12.603 0l1.972 1.132a14.045 14.045 0 0 0 12.603 0l2.866-1.652a3.841 3.841 0 0 0 1.87-1.396 3.806 3.806 0 0 0 0-4.426 3.85 3.85 0 0 0-1.87-1.397l-25.514-14.591a13.983 13.983 0 0 0-12.573 0l-40.059 22.911a3.849 3.849 0 0 0-1.793 1.426 3.8 3.8 0 0 0 .056 4.353 3.85 3.85 0 0 0 1.83 1.379Z" fill="#8C2F26"/><path d="m207.689 248.139-2.218-38.144a9.8 9.8 0 0 0-1.391-5.035 9.891 9.891 0 0 0-3.786-3.622l-2.127-1.162a3.377 3.377 0 0 0-3.081 0 3.05 3.05 0 0 0-1.787 2.172l-4.869 33.648a1.018 1.018 0 0 1-1.14.856h-.308a1.108 1.108 0 0 1-.711-.426 1.097 1.097 0 0 1-.214-.797l4.992-33.74a5.534 5.534 0 0 1 2.157-3.334 5.742 5.742 0 0 1 6.163-.368l2.219 1.193a12.295 12.295 0 0 1 4.629 4.468 12.175 12.175 0 0 1 1.719 6.177l2.218 38.084a.94.94 0 0 1-.224.679.957.957 0 0 1-.638.33h-.524a.933.933 0 0 1-.781-.227.92.92 0 0 1-.298-.752Z" fill="#A3A3A3"/><path d="m208.982 248.904-2.28-39.063a10.437 10.437 0 0 0-1.493-5.337 10.524 10.524 0 0 0-4.023-3.839l-2.219-1.224a4.056 4.056 0 0 0-5.045.989 3.992 3.992 0 0 0-.809 1.642l-4.992 34.535h-.863l5.023-34.719a4.857 4.857 0 0 1 2.802-3.265 4.941 4.941 0 0 1 4.316.206l2.218 1.224c1.8.992 3.302 2.441 4.353 4.198a11.472 11.472 0 0 1 1.625 5.805l2.281 39.031-.894-.183Z" fill="#E1E1E1"/><path d="M275.667 180.17h-.863a6.147 6.147 0 0 0-1.91-1.56l-27.086-15.54a14.89 14.89 0 0 0-13.404 0l-42.463 24.472a7.42 7.42 0 0 0-1.756 1.376l-1.017.153v2.386c.081.808.378 1.58.86 2.237a4.585 4.585 0 0 0 1.882 1.495l11.648 6.699a14.878 14.878 0 0 0 13.405 0l26.007-14.897a14.916 14.916 0 0 1 13.373 0l2.096 1.193a14.916 14.916 0 0 0 13.373 0l3.082-1.743a4.81 4.81 0 0 0 1.92-1.556 4.752 4.752 0 0 0 .884-2.299l-.031-2.416Z" fill="#AB551D"/><path d="m189.91 192.864 11.647 6.669a14.973 14.973 0 0 0 13.405 0l26.007-14.928a14.916 14.916 0 0 1 13.374 0l2.095 1.193a14.903 14.903 0 0 0 13.373 0l3.082-1.743a4.098 4.098 0 0 0 1.986-1.486 4.043 4.043 0 0 0 0-4.706 4.092 4.092 0 0 0-1.986-1.486l-27.086-15.539a14.97 14.97 0 0 0-13.404 0l-42.463 24.471a4.09 4.09 0 0 0-1.878 1.489 4.044 4.044 0 0 0-.019 4.562 4.083 4.083 0 0 0 1.867 1.504Z" fill="#D99849"/><path d="m228.706 188.919-19.69-11.196 12.757-7.739 19.69 11.196-12.757 7.739Z" fill="#EBEBEB"/><path d="M228.675 213.053s-1.233 5.323-1.356 6.118c-.123.796-1.263 5.078-2.342 5.047a4.39 4.39 0 0 1-2.188-.917 7.883 7.883 0 0 1-2.372-2.784 22.664 22.664 0 0 1-.771-4.833c-.215-2.6-.339-5.475-.369-6.73a3.02 3.02 0 0 1 0-.672 22.86 22.86 0 0 1 5.238-2.111l3.698 6.118.462.764Z" fill="#404B85"/><path d="M228.241 212.319a7.443 7.443 0 0 0-2.773 3.702 43.945 43.945 0 0 1-2.681 7.28 7.886 7.886 0 0 1-2.373-2.784 22.726 22.726 0 0 1-.77-4.833c1.602-2.692 3.082-4.955 3.082-4.955s-1.541-.704-3.606-1.774a3.029 3.029 0 0 1 0-.673 22.885 22.885 0 0 1 5.239-2.111l3.882 6.148Z" fill="#EDC0AF" style="mix-blend-mode:multiply"/><path d="M227.779 221.802a8.65 8.65 0 0 1-1.911 1.193 14.315 14.315 0 0 1-3.697-.184s-1.849-.459-1.972.551a26.634 26.634 0 0 0-.463 4.772c.143 1.123.433 2.224.863 3.273 0 0 1.941.734 2.619 0a17.158 17.158 0 0 1 3.544-1.989s2.773-1.345 2.897-2.08a13.098 13.098 0 0 0-1.233-3.67 20.166 20.166 0 0 1-.647-1.866Z" fill="#69401D"/><path d="M224.05 213.022c.014.224.014.449 0 .673a19.653 19.653 0 0 1-.77 3.273 34.07 34.07 0 0 0-1.171 4.405 44.342 44.342 0 0 0-.308 5.69 22.56 22.56 0 0 1-.493 3.64c-.106.253-.29.467-.524.612a12.574 12.574 0 0 1-4.468 1.59c-.261.079-.54.079-.801 0-.432-.275-.432-2.447-.493-4.588a70.675 70.675 0 0 0-1.849-11.135 42.78 42.78 0 0 1-.771-7.555v-3.548a8.91 8.91 0 0 1 1.11-1.683v-.153a2.84 2.84 0 0 1 2.311-.948c.952.14 1.841.555 2.557 1.193.493.367.956.795 1.325 1.132l.339.306c.206.203.446.369.709.489a9.368 9.368 0 0 1 3.082 6.454l.215.153Z" fill="#5763A3"/><path d="M215.518 227.155c.362 1.901.609 3.821.739 5.751a1.4 1.4 0 0 1-.801 0c-.431-.275-.431-2.447-.493-4.588a71.188 71.188 0 0 0-1.787-11.135 56.505 56.505 0 0 1-.801-11.073 19.836 19.836 0 0 1 1.602-6.118c.277-.642 1.202-1.04 2.188-1.315a6.107 6.107 0 0 0-2.465 3.976c0 .582 0 1.163-.216 1.683a26.911 26.911 0 0 0 0 3.059c0 1.743.277 3.303.339 4.802.304 5.012.87 10.005 1.695 14.958Z" fill="#EDC0AF" style="mix-blend-mode:multiply"/><path d="M235.606 220.731a37.713 37.713 0 0 1-3.513-1.56 68.194 68.194 0 0 1-8.104-5.476c-.277 2.233-1.695 5.751-1.941 7.678a44.343 44.343 0 0 0-.309 5.69 22.338 22.338 0 0 1-.493 3.64 1.321 1.321 0 0 1-.523.612v-.612s.246-7.984.246-9.177a38.053 38.053 0 0 1 0-7.739c.524-1.04-5.362-4.252-5.362-4.252l.617-.367 1.263-.765 2.126.551c1.282.253 2.518.696 3.667 1.315a42.802 42.802 0 0 1 12.326 10.462Z" fill="#EDC0AF" style="mix-blend-mode:multiply"/><path d="M222.051 228.134s-1.233 1.958-2.281 2.264a15.23 15.23 0 0 1-4.252-.551 2.714 2.714 0 0 1-.709-.367v3.059c0 .459-.893 1.224-1.202 1.591a7.737 7.737 0 0 0-1.54 2.539 2.25 2.25 0 0 0 .422 1.619c.344.466.854.784 1.426.889a5.09 5.09 0 0 0 4.191-.581c1.356-.765 3.359-2.845 4.407-3.487a3.666 3.666 0 0 0 1.468-1.246 3.617 3.617 0 0 0 .627-1.813c-.092-1.499-1.725-4.497-2.557-3.916Z" fill="#69401D"/><path d="M245.099 267.807a2.35 2.35 0 0 1-2.157 0c-.647-.336-.647-.887 0-1.254a2.33 2.33 0 0 1 2.157 0c.586.337.586.887 0 1.254Z" fill="#0E0E0E"/><path d="m242.447 267.257.031-1.346 2.866-.03.185 1.254-3.082.122Z" fill="#0E0E0E"/><path d="M244.975 266.462a2.258 2.258 0 0 1-2.034 0c-.586-.306-.616-.826 0-1.162a2.258 2.258 0 0 1 2.034 0c.493.306.524.826 0 1.162Z" fill="#242424"/><path d="M218.259 253.523a2.418 2.418 0 0 1-2.188-.245c-.555-.398-.493-.948 0-1.224a2.355 2.355 0 0 1 2.157.245c.709.398.555.948.031 1.224Z" fill="#0E0E0E"/><path d="m215.701 252.543.247-1.284 2.835.397v1.285l-3.082-.398Z" fill="#0E0E0E"/><path d="M218.322 252.177a2.297 2.297 0 0 1-2.034-.244.617.617 0 0 1-.382-.566.612.612 0 0 1 .382-.566 2.166 2.166 0 0 1 2.034.214c.647.398.462.887 0 1.162Z" fill="#242424"/><path d="M243.712 266.523h.585a.897.897 0 0 0 .788-.604.875.875 0 0 0 .044-.344l-3.913-34.78a12.172 12.172 0 0 0-1.756-6.131 12.277 12.277 0 0 0-4.623-4.422l-2.095-1.132a5.75 5.75 0 0 0-2.54-.744 5.754 5.754 0 0 0-2.606.469 5.5 5.5 0 0 0-2.008 1.577 5.465 5.465 0 0 0-1.074 2.307l-8.135 28.112a.882.882 0 0 0 .616 1.07h.586a.864.864 0 0 0 1.078-.611l8.074-27.989a3.053 3.053 0 0 1 1.109-1.805 3.093 3.093 0 0 1 3.636-.337l2.219 1.193a9.866 9.866 0 0 1 3.748 3.618 9.76 9.76 0 0 1 1.367 5.008l3.883 34.78a.92.92 0 0 0 1.017.765Z" fill="#A3A3A3"/><path d="M243.064 266.431h.863l-3.975-35.728a11.341 11.341 0 0 0-1.609-5.814 11.458 11.458 0 0 0-4.369-4.188l-2.219-1.224a4.835 4.835 0 0 0-4.345 0 4.898 4.898 0 0 0-1.786 1.358 4.857 4.857 0 0 0-.987 2.007l-8.258 28.998.832.214 8.289-29.029a3.994 3.994 0 0 1 .81-1.642 4.036 4.036 0 0 1 3.267-1.468c.622.022 1.23.186 1.778.48l2.218 1.223a10.603 10.603 0 0 1 4.015 3.844 10.5 10.5 0 0 1 1.501 5.333l3.975 35.636Z" fill="#E1E1E1"/><path d="M275.452 250.433a2.39 2.39 0 0 1-2.188 0 .67.67 0 0 1 0-1.255 2.511 2.511 0 0 1 2.188 0c.554.337.585.887 0 1.255Z" fill="#0E0E0E"/><path d="m272.801 249.852.031-1.316 2.865-.03.185 1.254-3.081.092Z" fill="#0E0E0E"/><path d="M275.295 249.087a2.35 2.35 0 0 1-2.033 0c-.555-.306-.586-.826 0-1.162a2.166 2.166 0 0 1 2.033 0c.524.306.555.826 0 1.162Z" fill="#242424"/><path d="M248.581 236.148a2.451 2.451 0 0 1-2.157-.244.684.684 0 0 1-.314-.248.666.666 0 0 1 0-.759.682.682 0 0 1 .314-.247 2.52 2.52 0 0 1 1.123-.131 2.52 2.52 0 0 1 1.065.375c.678.428.616.979-.031 1.254Z" fill="#0E0E0E"/><path d="m246.053 235.169.246-1.315 2.835.397-.031 1.285-3.05-.367Z" fill="#0E0E0E"/><path d="M248.673 234.802a2.256 2.256 0 0 1-2.033-.244c-.524-.367-.463-.887 0-1.163a2.3 2.3 0 0 1 2.033.245c.647.367.586.887 0 1.162Z" fill="#242424"/><path d="m269.256 214.277 3.821 34.046a.884.884 0 0 0 .608.782.91.91 0 0 0 .347.044h.616a.88.88 0 0 0 .605-.304.866.866 0 0 0 .197-.644l-3.76-33.495a5.547 5.547 0 0 1-2.434-.429ZM253.973 209.994h-.555l-6.717 23.462a.835.835 0 0 0 .079.665.873.873 0 0 0 .537.406l.616.183a.891.891 0 0 0 1.079-.612l6.748-23.737c-.585-.122-1.171-.275-1.787-.367Z" fill="#A3A3A3"/><path d="m269.533 214.369 3.883 34.658h.863l-3.821-34.383a5.23 5.23 0 0 1-.925-.275ZM253.974 209.994h-.308l-6.934 24.471.832.215 6.964-24.472-.554-.214Z" fill="#E1E1E1"/><path d="M250.582 232.63c-.246 1.102-.554 1.836-.924 2.05-2.434 1.407-10.046-3.946-10.046-3.946l-1.171-2.784a89.453 89.453 0 0 1 12.141 4.68Z" fill="#595959"/><path d="M249.844 232.233c-.247 1.101.185.796-.185 1.01-2.435 1.407-10.046-3.946-10.046-3.946l2.188-.459a40.8 40.8 0 0 1 8.043 3.395Z" fill="#3B3837"/><path d="M216.751 222.444v-.337a3.157 3.157 0 0 0 0 .337Z" fill="#726D6C"/><path d="m242.664 227.553 1.387-.888 7.611-21.106c0-.642 1.541-3.579 1.633-4.007a4.66 4.66 0 0 0-2.154 1.235 4.618 4.618 0 0 0-1.205 2.16l-7.272 22.606Z" fill="#0F0D0D"/><path d="M219.798 215.684c.4-.887 10.692-6.668 21.385-13 .462-.306.924-.551 1.356-.796a10.674 10.674 0 0 1 4.375-.795s5.239-.826 12.326 4.588c3.729 2.815 9.429 4.436 12.326 7.862 1.818 2.325.647 4.007-.832 6.301a6.134 6.134 0 0 1-1.88 1.805 98.588 98.588 0 0 1-19.043 10.492c-6.502 1.805-11.525-3.243-18.704-8.657-7.18-5.414-11.556-4.282-11.556-4.282-2.095-3.518-.123-2.6.247-3.518Z" fill="#AB551D"/><path d="M219.52 217.183a6.759 6.759 0 0 1 2.897.306 29.01 29.01 0 0 1 9.522 4.282c2.496 1.866 4.622 3.854 6.594 5.567a12.689 12.689 0 0 0 5.649 3.116c2.122.536 4.348.516 6.461-.057a101.87 101.87 0 0 0 19.043-10.492c3.636-2.416 3.637-3.854 1.264-6.821-.462-.581-2.126-2.386-2.619-2.876a69.89 69.89 0 0 0-8.105-6.301 33.457 33.457 0 0 0-7.765-3.64 8.494 8.494 0 0 0-4.653-.918 10.09 10.09 0 0 0-4.376.765c-.431.245-.893.489-1.355.795a255.808 255.808 0 0 0-22.803 14.194c-.493.979-1.448 2.08.246 2.08Z" fill="#8E1F16"/><path d="M271.753 215.531a5.019 5.019 0 0 1-.815 1.967 5.074 5.074 0 0 1-1.558 1.459 101.397 101.397 0 0 1-18.889 10.461 7.178 7.178 0 0 1-2.095.306 15.483 15.483 0 0 1-8.782-2.875 21.99 21.99 0 0 1-2.219-1.744c-1.602-1.376-3.236-2.814-5.115-4.252a24.497 24.497 0 0 0-8.289-4.129 16.005 16.005 0 0 0-3.883-.612h-.924c.09-.21.193-.414.308-.612.105-.187.198-.381.277-.581.74-1.009 12.326-7.892 21.724-13.459l.863-.52 1.325-.765a12.967 12.967 0 0 1 3.082-.703h1.694a20.844 20.844 0 0 1 11.494 4.527l2.712 1.958a33.237 33.237 0 0 1 5.423 4.435c.384.408.744.837 1.079 1.285 1.386 1.621 2.865 2.233 2.588 3.854Z" fill="#BC7C72"/><path d="m252.463 200.359-28.472 16.304a16.005 16.005 0 0 0-3.883-.612h-.924c.09-.21.193-.414.308-.612.105-.187.198-.381.277-.581.74-1.009 12.326-7.892 21.724-13.459l.863-.52 1.325-.765a12.967 12.967 0 0 1 3.082-.703h.308c.266-.031.535-.031.801 0h.339c1.47.005 2.921.329 4.252.948ZM271.753 215.532a5.065 5.065 0 0 1-2.373 3.426 101.454 101.454 0 0 1-18.889 10.461 7.258 7.258 0 0 1-2.096.306 15.485 15.485 0 0 1-8.782-2.875l28.473-16.457c.383.407.743.836 1.078 1.284 1.387 1.622 2.866 2.233 2.589 3.855Z" fill="#AC5C53"/><path d="M245.898 203.388a54.412 54.412 0 0 0-13.805 3.976 32.857 32.857 0 0 0-6.162 3.64c-1.572 1.224-3.421 1.652-5.054 2.815a60.226 60.226 0 0 1 6.656 2.11l3.359 1.53c.708.336 2.064 1.376 2.804 1.376a36.35 36.35 0 0 1 4.53 2.509 14.894 14.894 0 0 0 3.389 1.59l1.602.581c2.564.737 5.27.843 7.884.31a16.503 16.503 0 0 0 7.123-3.369 8.594 8.594 0 0 0 1.88-1.621 5.149 5.149 0 0 0 1.386-3.395c0-.796-.308-1.499-.308-2.264a10.435 10.435 0 0 0-1.78-4.525 10.535 10.535 0 0 0-3.643-3.244 14.412 14.412 0 0 0-9.861-2.019Z" fill="#E86868" style="mix-blend-mode:multiply"/><path d="M273.817 218.467c-.216 1.101 0 1.315-.432 1.652-.708.887-2.157 3.059-4.375 1.407.338-.241.657-.506.955-.795.247-.306.493-.581.709-.887l.37-.582 1.109.582c.308.183.616-1.927.955-1.775l.709.398Z" fill="#595959"/><path d="M273.11 218.069c-.246 1.102.185.796-.185 1.01-.893.52-1.078 2.845-3.081 1.652.246-.306.493-.581.708-.887l.37-.582v-.153c.832.521 0 .215 1.017.735.308.183.616-1.927.955-1.775h.216Z" fill="#3B3837"/><path d="M239.952 202.744a4.86 4.86 0 0 1 0 1.193c-.462 2.325-2.496 2.111-5.7 2.203l-2.465.183h-.802a20.312 20.312 0 0 1-7.611-2.049l-.462-.214a21.386 21.386 0 0 1-3.266-1.897l-.863-.275a5.117 5.117 0 0 1-1.325-1.468 1.377 1.377 0 0 1-.216-.551v-1.04a8.097 8.097 0 0 1 1.541-4.588c3.272-.519 6.6-.591 9.891-.215h.432l3.081.215h1.233l5.115.52v.642a33.093 33.093 0 0 1 1.417 7.341Z" fill="#FFCDAB"/><path d="m232.557 197.606-1.694 8.749c-4.838 0-13.22-4.283-13.497-6.638a8.153 8.153 0 0 1 1.417-5.476c.133.646.319 1.28.555 1.897.431.979 3.081.826 4.129.826 1.048 0 9.09.642 9.09.642Z" fill="#EDC0AF" style="mix-blend-mode:multiply"/><path d="M261.493 209.719a19.326 19.326 0 0 1-1.356 6.118 10.331 10.331 0 0 1-1.88 3.059 10.092 10.092 0 0 1-3.081 1.407c-3.082 1.163-7.519 2.417-7.642 2.6-.863 1.53-8.998-1.009-11.956-2.141a47.388 47.388 0 0 1-3.513-1.591 69.343 69.343 0 0 1-8.073-5.475c-2.342-1.744-4.284-3.243-4.684-3.396l-1.603-.581c-.4 0-.862-.306-1.325-.52l-.986-.428-.554-.245c-.505-.246-.99-.533-1.449-.856-.616-.459-1.047-.948-1.047-1.438a9.628 9.628 0 0 1 .185-1.56c.137-.695.323-1.38.554-2.049.308-.979.647-1.836.863-2.417a3.395 3.395 0 0 1 2.188-1.315l1.171-.214a8.25 8.25 0 0 1 1.633 0c.375.057.745.139 1.109.244l2.589.765.832.245 4.314 1.376h.524c.795.394 1.548.865 2.249 1.407 1.171.918 26.254-8.748 27.425-7.463a21.593 21.593 0 0 1 3.513 14.468Z" fill="#5763A3"/><path d="M213.483 204.549a27.382 27.382 0 0 0 0 3.059c-.616-.459-1.047-.948-1.047-1.437a19.829 19.829 0 0 1 1.602-6.118c.277-.643 1.202-1.04 2.188-1.316a6.11 6.11 0 0 0-2.465 3.977c-.155.734-.216 1.315-.278 1.835Z" fill="#EDC0AF" style="mix-blend-mode:multiply"/><path d="M262.662 208.955a12.176 12.176 0 0 1-2.527 6.913l-.554.765a12.678 12.678 0 0 1-4.376 3.609c-3.081 1.162-7.519 2.417-7.642 2.6-.863 1.53-8.998-1.009-11.956-2.141a47.804 47.804 0 0 1-3.513-1.591 69.428 69.428 0 0 1-8.073-5.475c-2.342-1.744-4.283-3.243-4.684-3.396l-1.602-.581a5.315 5.315 0 0 1 0-2.294c.647-.275 1.109-.459 1.232-.367a85.642 85.642 0 0 0 9.06 4.894c1.171 0 5.67 5.598 7.457 6.638a25.43 25.43 0 0 0 10.169 1.866 30.079 30.079 0 0 0 12.603-5.047 10.08 10.08 0 0 0 3.297-5.629c.525-2.001.835-4.051.924-6.117.031 1.774.185 4.129.185 5.353Z" fill="#C9B9B3" style="mix-blend-mode:multiply"/><path d="M248.181 202.776a55.38 55.38 0 0 1-6.533.55 5.82 5.82 0 0 1-1.695-.581 4.618 4.618 0 0 0-1.849-.581c-1.078 0-6.163 1.56-7.518.673a19.508 19.508 0 0 0-2.65-1.162l-.524-.184a143.767 143.767 0 0 0-4.314-1.499h.431a12.884 12.884 0 0 0 4.684-1.682l3.081-2.203c.24.08.5.08.74 0 .297-.394.627-.762.986-1.101l.585-.459a5.908 5.908 0 0 1 2.157-1.04 5.818 5.818 0 0 1 1.48 0c1.078 0 2.65.245 4.19.49h.925c1.465.162 2.91.469 4.314.917.092 0 1.51 7.862 1.51 7.862Z" fill="#404B85"/><path d="M261.337 197.086c-2.22.05-4.416-.466-6.378-1.499l-1.973-1.131a14.238 14.238 0 0 0-10.785-.765c-.609.209-1.197.475-1.756.795l-1.572.918-10.507 6.118-.432.244-4.653 2.662-3.081 1.774-2.404 1.376-1.818 1.071-.524.245c-.972.477-2.01.807-3.081.979V206.324a7.13 7.13 0 0 1 .185-1.56c.141-.704.327-1.399.555-2.08.308-.948.647-1.805.862-2.386.216-.581 1.202-1.04 2.188-1.315l1.14-.214a8.103 8.103 0 0 1 1.479-4.527 36.62 36.62 0 0 1 9.892-.215h.431l3.082.215h1.232a5.926 5.926 0 0 1 2.157-1.041c.617-.305 1.11-.489 1.11-.489h6.84a14.985 14.985 0 0 1 7.55.337 25.838 25.838 0 0 1 8.382 1.223 6.685 6.685 0 0 1 1.633 2.203c.099.196.181.401.246.611Z" fill="#8C2F26"/><path d="M236.686 192.712h6.841c-.786.172-1.551.428-2.281.765l-.832.428-1.694.948-10.909 6.271-.431.245-4.591 2.63-3.082 1.683-1.941 1.132-1.942 1.101-1.078.52c-.799.345-1.637.591-2.496.734v-3.059a7.13 7.13 0 0 1 .185-1.56c.141-.704.327-1.399.555-2.08.308-.948.647-1.805.862-2.386.216-.581 1.202-1.04 2.188-1.315l1.14-.215a8.106 8.106 0 0 1 1.603-4.313c3.272-.518 6.6-.59 9.891-.214h.432l3.081.214h1.233a5.893 5.893 0 0 1 2.157-1.04c.616-.306 1.109-.489 1.109-.489Z" fill="#9E4036"/><path d="M261.09 196.566a12.87 12.87 0 0 1-6.162-1.469l-1.973-1.131a9.68 9.68 0 0 0-1.91-.826 25.838 25.838 0 0 1 8.382 1.223 6.689 6.689 0 0 1 1.663 2.203Z" fill="#3B8665"/><path d="m229.168 193.904 3.081.214-9.521 5.476-1.664.948-.524.306-1.756 1.04-3.082 1.713a12.973 12.973 0 0 1-3.39 1.223 17.42 17.42 0 0 1 .555-2.08c.308-.948.647-1.804.863-2.386.216-.581 1.202-1.04 2.188-1.315l1.14-.214a8.096 8.096 0 0 1 1.726-4.588 36.612 36.612 0 0 1 9.891-.215l.493-.122Z" fill="#8C2F26"/><path d="m228.736 193.874-8.659 4.955-2.496 1.438-2.619 1.499a9.977 9.977 0 0 1-1.849.826c.308-.948.647-1.805.863-2.386.216-.581 1.202-1.04 2.188-1.315l1.14-.215a8.1 8.1 0 0 1 1.479-4.435 36.6 36.6 0 0 1 9.953-.367Z" fill="#AB551D"/><path d="m214.16 199.931.801-.398.956-.551a3.562 3.562 0 0 0-1.757.949ZM218.781 194.088a7.758 7.758 0 0 0-1.386 3.915l7.765-4.435a17.749 17.749 0 0 0-6.379.52Z" fill="#D99849"/><path d="M216.996 198.371a45.468 45.468 0 0 1-3.267-5.659c-.77-1.958-2.157-7.28-2.157-7.28l.247-2.05-1.325-3.212-.432-3.732 3.883-.795 5.331 14.01c3.274.39 6.593-.096 9.614-1.407a40.301 40.301 0 0 0 8.382-9.483l-6.502-3.059a54.56 54.56 0 0 0-5.485-.826 32.644 32.644 0 0 1-4.715-.979l.863-2.844 12.326.826 14.421.367-12.326 18.139-12.079 4.283-6.779 3.701Z" fill="#9AA9AD" style="mix-blend-mode:multiply"/><path d="M234.9 173.563a15.759 15.759 0 0 0-3.975-.214 21.754 21.754 0 0 1-4.067 0 1.481 1.481 0 0 1-.647-.184 5.729 5.729 0 0 1-.709-.428 13.62 13.62 0 0 0-2.188.367h-1.263l-.709.795a.555.555 0 0 1-.709.153.33.33 0 0 1 0-.153 6.58 6.58 0 0 1 0-2.049c.246-.921.566-1.821.956-2.692.215-.183 3.081-.642 3.081-.734a4.036 4.036 0 0 1 1.325 0 9.475 9.475 0 0 1 2.897 1.223 4.632 4.632 0 0 0 2.157.49h2.187l1.664 3.426Z" fill="#FFCDAB"/><path d="M226.207 173.073a5.724 5.724 0 0 1-.708-.429c-.739.063-1.47.186-2.188.368h-1.264l-.708.795a.56.56 0 0 1-.709.153.33.33 0 0 1 0-.153c0-.214 0-.428.154-.49.218-.256.395-.545.524-.856l.185-1.499s.524-.673.678-.642c.817-.215 1.62-.48 2.403-.796h.771s.585 0 .677.459c.094.269.166.546.216.826.063.308.166.606.308.887.093.398 0 .581-.339 1.377Z" fill="#EDC0AF" style="mix-blend-mode:multiply"/><path d="m230.062 165.212-7.272 6.118-2.527 2.722-.339.765 1.386-.581 9.276-8.443-.524-.581Z" fill="#FF7500"/><path d="m227.011 170.534-.862.306a9.981 9.981 0 0 1-1.849.52c-.462 0-1.294.398-1.479.765-.185.367 0 .887.893.765.894-.123 2.096-.245 2.096-.245a5.838 5.838 0 0 0 2.896.398c2.034 0 3.082-.49 3.082-.826 0-.337-.216-1.499-1.171-1.683-1.194-.2-2.412-.2-3.606 0Z" fill="#FFCDAB"/><path d="M248.519 173.624a9.577 9.577 0 0 1-3.081.704 27.917 27.917 0 0 1-4.561.183 30.618 30.618 0 0 1-8.72-.856 11.358 11.358 0 0 1 0-1.224v-.826c0-.153.277-1.988.277-1.988s4.622-.245 5.393-.183a50.977 50.977 0 0 0 5.331-.949s5.392.765 5.577.949c.025 1.4-.047 2.8-.216 4.19Z" fill="#217EFF"/><path d="M245.407 174.359a27.917 27.917 0 0 1-4.561.183 30.618 30.618 0 0 1-8.72-.856 11.358 11.358 0 0 1 0-1.224l6.84.214 5.485-.428.956 2.111Z" fill="#C9B9B3" style="mix-blend-mode:multiply"/><path d="M252.832 162.276a80.353 80.353 0 0 0-5.423-8.565l-2.866-4.436s-5.361 1.438-6.163 3.059a16.889 16.889 0 0 0-.862 4.956c.037 2.07.348 4.127.924 6.118.555 1.56 2.003 4.037 3.081 4.282.542.08 1.053.302 1.48.642.339.337.832.612.986 1.102.062.374.062.757 0 1.131v1.713a.382.382 0 0 0 0 .184h.154a4.33 4.33 0 0 0 1.54 0 98.227 98.227 0 0 0 4.13-.642l2.865-.52a2.6 2.6 0 0 0 1.356-.49 1.86 1.86 0 0 0 .432-1.652 8.448 8.448 0 0 0-.586-1.682c-.17-.597-.386-1.18-.647-1.744a2.311 2.311 0 0 1-.462-1.713 9.068 9.068 0 0 0 .061-1.743Z" fill="#FFCDAB"/><path d="M261.492 181.516s-.308 1.805-.647 4.007a65.708 65.708 0 0 0-.893 7.464v.459c-.493 2.692-4.037 6.118-9.43 8.167a17.151 17.151 0 0 1-11.678-.306 2.037 2.037 0 0 1-.555-.367c0-.183-.462-.887-.894-1.774a35.482 35.482 0 0 1-2.311-5.903c0-.459-.185-1.285-.308-2.295-.123-1.009-.308-2.416-.431-3.701a44.387 44.387 0 0 1-.339-4.955 8.836 8.836 0 0 1 2.28-5.629c.247-.214.894-.642 1.633-1.132l1.017-.673 1.972-1.284.278-.184.308-.245a24.75 24.75 0 0 1 6.317-2.385c2.311-.368 3.852-2.631 6.81-4.283a7.214 7.214 0 0 1 1.941-.734c1.356-.184 1.849.703 2.65 1.162a7.352 7.352 0 0 1 2.115 2.731 7.295 7.295 0 0 1 .628 3.387 70.548 70.548 0 0 1-.463 8.473Z" fill="#389AF5"/><path d="M244.42 187.328a19.25 19.25 0 0 1-2.126 4.466 7.802 7.802 0 0 1-3.082 2.111s-1.202 1.223-1.263 1.682c.262.977.634 1.921 1.109 2.814l-.493 1.01c.066.702.066 1.408 0 2.11a2.037 2.037 0 0 1-.555-.367 41.784 41.784 0 0 1-3.081-7.677c0-.949-.493-3.518-.74-6.118l.894-.643c1.171-.611 8.782-4.099 9.337.612ZM250.09 171.513v4.252c0 1.193 2.496 8.504 2.496 9.177s1.263 8.29 1.263 8.29.401 5.016 1.325 4.313a7.688 7.688 0 0 0 2.342-3.059c0-.581-.647-12.45-.647-12.45l-4.191-10.737s-2.033-3.059-2.588.214Z" fill="#C9B9B3" style="mix-blend-mode:multiply"/><path d="M218.538 180.079a4.182 4.182 0 0 0-.555 1.896v1.56s-3.081 3.273-4.437.979v-.061l-.278-1.591-1.571-1.743a7.643 7.643 0 0 1-.709-2.172c-.308-1.469-.616-1.989-.339-2.509a.56.56 0 0 1 .401-.336.522.522 0 0 1 .308 0 .522.522 0 0 1 .246-.551l.216-.153s-.246 0 0-.183h.216c.291-.131.605-.204.924-.214h.185a.832.832 0 0 1 0-.337.487.487 0 0 1 .339-.306 4.69 4.69 0 0 1 1.14.398l1.726 2.08s.216-1.009.246-1.101c.304-.166.624-.299.956-.398.034.428.034.857 0 1.285a9.613 9.613 0 0 0 0 1.224l.986 2.233Z" fill="#FFCDAB"/><path d="M213.543 183.198c.086.373.148.751.185 1.132h-.215l-.278-1.591-1.571-1.743a7.643 7.643 0 0 1-.709-2.172c-.308-1.469-.616-1.989-.339-2.509 0 0 .616 3.059.924 3.885.309.826 1.818 1.866 2.003 2.998Z" fill="#EDC0AF" style="mix-blend-mode:multiply"/><path d="M224.115 188.184a56.443 56.443 0 0 1-4.468 8.168c-.401.489-.74.734-.956.642a18.041 18.041 0 0 1-3.574-6.362c0-.796-2.25-4.497-2.188-5.17a5.323 5.323 0 0 1 .431-1.529 2.822 2.822 0 0 1 2.034-1.683 5.842 5.842 0 0 1 3.544 0l2.742 3.579 1.849 1.805.586.55Z" fill="#217EFF"/><path d="M244.82 185.431v.796a4.91 4.91 0 0 1-.913 2.012 4.97 4.97 0 0 1-1.706 1.414c-1.14.397-5.67 3.548-9.245 4.986a43.129 43.129 0 0 1-13.342 2.814 1.572 1.572 0 0 1-.832-.459 3.023 3.023 0 0 1-.483-1.113 3.016 3.016 0 0 1-.01-1.212c.16-1.298.513-2.566 1.047-3.762 1.387-3.365 3.359-3.059 4.129-3.243h.185a24.716 24.716 0 0 0 4.869-2.171 35.075 35.075 0 0 0 4.869-4.436c.893-1.468 3.081-4.129 3.081-4.129s2.435-2.386 5.917 1.59a8.59 8.59 0 0 1 1.995 3.187 8.533 8.533 0 0 1 .439 3.726Z" fill="#2F86FF"/><path d="M244.821 185.431v.796a4.91 4.91 0 0 1-.913 2.012 4.95 4.95 0 0 1-1.706 1.414c-1.14.397-5.67 3.548-9.244 4.986a43.14 43.14 0 0 1-13.343 2.814 1.575 1.575 0 0 1-.832-.459 18.041 18.041 0 0 1-3.574-6.362c0-.796-2.25-4.497-2.188-5.17a5.323 5.323 0 0 1 .431-1.529c.832 1.774 2.773 5.842 3.082 6.637a22.529 22.529 0 0 0 1.849 4.099 4.11 4.11 0 0 0 1.448 1.683 42.715 42.715 0 0 0 13.866-3.64 100.84 100.84 0 0 0 11.124-7.281Z" fill="#C9B9B3" style="mix-blend-mode:multiply"/><path d="M249.041 148.999a13.2 13.2 0 0 0-6.625-.459c-2.865.826-5.238 3.059-5.177 4.069.062 1.009.031 3.395.031 4.007v4.16c.052.494.135.984.247 1.468 0 .184.524 1.897.524 1.897s0-2.294.77-2.447c.77-.153 3.605.55 4.006 1.621a30.307 30.307 0 0 0 2.557 4.313 7.917 7.917 0 0 0 4.191.367 9.065 9.065 0 0 0 4.961-3.242 6.605 6.605 0 0 0 1.449-4.833 10.14 10.14 0 0 0-2.157-6.852 29.563 29.563 0 0 0-4.777-4.069Z" fill="#F55B34"/><path d="M253.88 158.727a23.472 23.472 0 0 1 1.88 7.402c.339 4.222 3.081 14.285 3.358 15.662.278 1.376-.647 10.186-.647 10.186l-.493 3.365s-1.941 1.132-3.081-1.56-2.835-13.49-3.636-15.539a18.655 18.655 0 0 1-1.51-7.984c.185-3.059 1.078-7.189 1.017-9.024-.062-1.835 0-3.334-.37-3.61a7.96 7.96 0 0 0-1.972-.52s.955-3.823 2.711-2.263c1.757 1.56 1.788 1.591 2.096 2.233.281.523.499 1.077.647 1.652Z" fill="#FF6537"/><path d="M241.185 161.633s.278 2.142.247 2.601c-.031.458-.185.948-.616.978-.432.031-.894-1.376-.894-1.376v-2.203s1.078-.52 1.263 0Z" fill="#FFD9C2"/><path d="m211.357 177.02-.339-.918a.522.522 0 0 1 .308 0l.77 1.713v.459l-.739-1.254ZM212.929 176.194l.801 1.223-1.109-1.223-.74-.704s-.246 0 0-.183l1.048.887ZM215.208 177.019l-.678-.428-.586-.948-.893-.734h.185a.798.798 0 0 1 0-.337l.986 1.101.986 1.346Z" fill="#EDC0AF" style="mix-blend-mode:multiply"/><path d="M250.953 205.926c-.431 2.019-2.003 15.295-1.849 16.09 0 0 .956 1.958 1.387 1.835a130.297 130.297 0 0 0 15.407-10.033c4.59-2.52 9.025-5.309 13.281-8.351a44.046 44.046 0 0 0 .925-14.805 4.282 4.282 0 0 0-.339-1.009c-1.449-2.539-6.81-.734-16.055 4.252a35.787 35.787 0 0 0-11.401 8.259 6.578 6.578 0 0 0-1.356 3.762Z" fill="#8E1F16"/><path d="m252.463 202.164 3.574 1.315 24.375-12.817a4.282 4.282 0 0 0-.339-1.009c-1.449-2.539-6.81-.734-16.055 4.252a35.78 35.78 0 0 0-11.555 8.259Z" fill="#BC7C72"/><path d="m255.422 211.891-2.188.458s-2.157 13.276-3.544 19.486a3.625 3.625 0 0 1-.893 2.019l1.849-.796h.308c2.434-1.499 4.468-21.167 4.468-21.167Z" fill="#595959"/><path d="m256.284 212.687-2.188.458s-2.157 13.276-3.513 19.486a3.223 3.223 0 0 1-.894 2.018l1.849-.795h.339c2.404-1.376 4.407-21.167 4.407-21.167Z" fill="#A3A3A3"/><path d="m278.686 197.759-2.127.52s-2.372 15.294-3.605 19.393a3.905 3.905 0 0 1-.893 2.142l.215.458 1.633-1.346h.309c2.434-1.498 4.468-21.167 4.468-21.167Z" fill="#595959"/><path d="m279.548 198.554-2.188.428s-2.157 13.306-3.543 19.485c-.247 1.101-.524 1.805-.894 2.019l-.739.918 2.372-1.163s.463-.428.555-.489c2.434-1.529 4.437-21.198 4.437-21.198Z" fill="#A3A3A3"/><path d="M252.156 206.538a162.671 162.671 0 0 0-1.849 17.283s1.171.887 1.664.734c1.016-.367 2.033-1.346 4.19-2.417 4.9-2.416 11.094-5.811 11.094-5.811a129.149 129.149 0 0 0 13.157-8.321 46.838 46.838 0 0 0 1.048-15.661s-.431-.949-.462-1.04a2.58 2.58 0 0 0-.216-.582 2.483 2.483 0 0 0-2.157-1.59c-2.65 0-7.21 1.927-13.651 5.383-8.011 4.344-10.939 7.189-12.048 9.177a7.534 7.534 0 0 0-.77 2.845Z" fill="#9E4036"/><path d="M254.373 209.23c0 .734.524 1.04 1.171.673a2.633 2.633 0 0 0 1.202-2.019c0-.734-.555-1.04-1.202-.673a2.574 2.574 0 0 0-1.171 2.019ZM253.695 217.182c0 .765.524 1.04 1.171.673a2.633 2.633 0 0 0 1.202-2.019c0-.734-.555-1.04-1.202-.673a2.563 2.563 0 0 0-1.171 2.019ZM276.344 197.055c0 .765.524 1.071 1.171.673a2.54 2.54 0 0 0 1.171-2.019c0-.734-.524-1.04-1.171-.673a2.636 2.636 0 0 0-1.171 2.019ZM275.666 204.947c0 .734.524 1.04 1.171.643a2.552 2.552 0 0 0 1.171-2.019c0-.734-.524-1.04-1.171-.643a2.533 2.533 0 0 0-1.171 2.019Z" fill="#A3A3A3"/><path d="m142.486 324.001-34.142-19.608 39.72-22.758 34.173 19.577-39.751 22.789Z" fill="#9AA9AD" style="mix-blend-mode:multiply"/><path d="m85.51 292.982 12.049 6.791a15.499 15.499 0 0 0 13.836 0l26.839-15.294a15.5 15.5 0 0 1 13.836 0l2.157 1.254a15.495 15.495 0 0 0 13.805 0l3.081-1.805c3.852-2.202 3.852-5.751 0-7.922l-27.887-15.999a15.508 15.508 0 0 0-13.805 0l-43.88 25.053c-3.82 2.202-3.852 5.751-.03 7.922Z" fill="#9AA9AD" style="mix-blend-mode:multiply"/><path d="M132.163 274.507s-.586 0-.832.887a7.667 7.667 0 0 0 0 2.447 42.582 42.582 0 0 1 4.252 2.141 50.046 50.046 0 0 0 7.457 4.13 6.392 6.392 0 0 0 4.869-.765 2.537 2.537 0 0 0 .986-2.172l.37-2.141-1.911-.856-15.191-3.671ZM110.933 284.479a1.542 1.542 0 0 0-1.01.391 1.525 1.525 0 0 0-.5.954 5.809 5.809 0 0 0 1.109 4.772c1.264 1.132 7.242 1.499 8.413 1.774a27.907 27.907 0 0 0 8.812.979c2.435-.52 2.342-1.988 2.342-1.988l.247-2.355-15.192-3.059-4.221-1.468Z" fill="#251D1D"/><path d="M138.389 273.161c-.185 0-3.081-1.835-4.869-.367-1.787 1.468-2.126.826-2.064 2.049.062 1.224 4.345 3.549 6.625 4.895 2.28 1.346 5.084 3.364 7.765 2.692 2.681-.673 3.606-1.622 3.575-2.295-.031-.673-2.065-6.117-2.065-6.117l-8.967-.857ZM130.222 288.088s.832 3.059-1.849 3.518a34.146 34.146 0 0 1-8.782-.642 22.29 22.29 0 0 1-7.457-1.254 3.902 3.902 0 0 1-2.072-1.776 3.859 3.859 0 0 1-.393-2.69 3.644 3.644 0 0 1 1.575-1.938 3.694 3.694 0 0 1 2.462-.479h5.454s8.042.52 8.689 1.682c.648 1.163 2.373 3.579 2.373 3.579Z" fill="#69401D"/><path d="m133.92 269.398 1.664 4.221a11.334 11.334 0 0 0 4.653 5.721 14.388 14.388 0 0 0 7.365 1.437 21.514 21.514 0 0 0 2.033-3.059c.305-1.376.46-2.781.463-4.19-.216-1.01-.925-4.008-.925-4.283 0-.275-14.175-7.678-15.253.153Z" fill="#332B2B"/><path d="M129.667 287.354a4.117 4.117 0 0 1-1.726 1.071 8.261 8.261 0 0 1-4.745 0 11.707 11.707 0 0 1-2.527-.796c-1.941-.887-1.51-1.774-1.51-1.774s.216-2.416-3.975-9.177a79.546 79.546 0 0 1-5.639-10.186s.401-.856.955-1.957a23.881 23.881 0 0 1 2.835-4.528c.863-.611 10.754 5.721 10.816 6.118.062.398 0 .796.216 1.713.215.918.215 1.652.308 2.539.185 1.377.339 2.784.462 3.548.247 1.713 4.53 13.429 4.53 13.429Z" fill="#7C4F29"/><path d="M120.67 287.691c-1.941-.887-1.509-1.774-1.509-1.774s.215-2.417-3.976-9.177a83.546 83.546 0 0 1-5.669-10.186c0 .306 1.016.673 2.342 1.04a56.745 56.745 0 0 0 3.574 6.118 39.995 39.995 0 0 1 5.423 12.235 2.7 2.7 0 0 1-.185 1.744ZM129.668 287.354a4.099 4.099 0 0 1-1.726 1.07 11.015 11.015 0 0 1-.677-2.08 48.868 48.868 0 0 0-10.169-17.466c2.804.551 5.731 1.009 7.488 1.285.185 1.376.339 2.783.462 3.548.339 1.927 4.622 13.643 4.622 13.643Z" fill="#C9B9B3" style="mix-blend-mode:multiply"/><path d="M165.936 278.515a2.39 2.39 0 0 1-2.188 0 .682.682 0 0 1-.432-.628.682.682 0 0 1 .432-.627 2.511 2.511 0 0 1 2.188 0c.462.337.462.887 0 1.255Z" fill="#0E0E0E"/><path d="m163.256 277.933.061-1.315 2.866-.031.185 1.254-3.112.092Z" fill="#0E0E0E"/><path d="M165.782 277.168a2.354 2.354 0 0 1-2.034 0c-.555-.306-.586-.826 0-1.162a2.17 2.17 0 0 1 2.034 0c.616.275.616.795 0 1.162Z" fill="#242424"/><path d="M108.252 302.159a2.512 2.512 0 0 1-2.188 0c-.617-.336-.647-.887 0-1.254a2.39 2.39 0 0 1 2.188 0 .674.674 0 0 1 .313 1.007.674.674 0 0 1-.313.247Z" fill="#0E0E0E"/><path d="m105.6 301.578.03-1.316 2.866-.061.185 1.285-3.081.092Z" fill="#0E0E0E"/><path d="M108.098 300.783a2.17 2.17 0 0 1-2.034 0c-.554-.306-.585-.826 0-1.162a2.382 2.382 0 0 1 2.034 0c.524.306.555.826 0 1.162Z" fill="#242424"/><path d="M86.28 289.954a2.505 2.505 0 0 1-2.188-.245c-.554-.428-.493-.978 0-1.254a2.52 2.52 0 0 1 2.188.245c.77.428.709.979 0 1.254Z" fill="#0E0E0E"/><path d="m83.816 288.975.247-1.315 2.835.398-.031 1.284-3.05-.367Z" fill="#0E0E0E"/><path d="M86.433 288.578a2.259 2.259 0 0 1-2.034-.214c-.523-.398-.462-.918 0-1.163a2.383 2.383 0 0 1 2.034.214c.647.398.586.918 0 1.163Z" fill="#242424"/><path d="M134.288 260.222a2.418 2.418 0 0 1-2.188-.245.677.677 0 0 1-.432-.627.67.67 0 0 1 .432-.627 2.502 2.502 0 0 1 2.188.245c.678.428.616 1.04 0 1.254Z" fill="#0E0E0E"/><path d="m131.732 259.243.247-1.285 2.835.398-.031 1.284-3.051-.397Z" fill="#0E0E0E"/><path d="M134.353 258.876a2.256 2.256 0 0 1-1.046.12 2.253 2.253 0 0 1-.988-.365c-.523-.367-.462-.887 0-1.162a2.297 2.297 0 0 1 2.034.244c.647.367.586.887 0 1.163Z" fill="#242424"/><path d="m163.502 276.403-4.314-39.062a9.794 9.794 0 0 0-1.356-5.041 9.882 9.882 0 0 0-3.759-3.646l-5.608-3.059a3.474 3.474 0 0 0-3.082 0 3.284 3.284 0 0 0-1.787 2.233l-8.998 30.589a.827.827 0 0 1-.396.48.838.838 0 0 1-.621.07l-.739-.214a.79.79 0 0 1-.476-.395.8.8 0 0 1-.048-.614l8.967-30.589a5.603 5.603 0 0 1 1.094-2.279 5.664 5.664 0 0 1 1.987-1.576 5.647 5.647 0 0 1 5.054.184l5.701 3.059a12.284 12.284 0 0 1 4.638 4.449 12.162 12.162 0 0 1 1.74 6.165l4.314 38.94a.998.998 0 0 1-.219.762 1.014 1.014 0 0 1-.705.37h-.308a1.01 1.01 0 0 1-1.079-.826Z" fill="#A3A3A3"/><path d="m164.858 277.199-4.437-40.041a10.464 10.464 0 0 0-1.497-5.336 10.57 10.57 0 0 0-4.019-3.841l-5.701-3.059a3.989 3.989 0 0 0-1.781-.51 3.986 3.986 0 0 0-3.284 1.475 3.932 3.932 0 0 0-.789 1.666l-9.245 31.262-.832-.245 9.245-31.232a4.843 4.843 0 0 1 1.019-1.955 4.894 4.894 0 0 1 1.783-1.31 4.929 4.929 0 0 1 4.316.207l5.731 3.058a11.49 11.49 0 0 1 4.348 4.197 11.38 11.38 0 0 1 1.6 5.806l4.437 39.98-.894-.122Z" fill="#E1E1E1"/><path d="m90.532 254.104 10.97 6.301a14.045 14.045 0 0 0 12.603 0l24.559-14.071a13.979 13.979 0 0 1 12.573 0l1.972 1.132a14.045 14.045 0 0 0 12.603 0l2.866-1.652a3.858 3.858 0 0 0 1.87-1.396 3.807 3.807 0 0 0 0-4.427 3.858 3.858 0 0 0-1.87-1.396l-25.515-14.622a13.992 13.992 0 0 0-12.572 0l-40.059 22.912a3.842 3.842 0 0 0-1.87 1.396 3.805 3.805 0 0 0 0 4.426 3.85 3.85 0 0 0 1.87 1.397Z" fill="#8C2F26"/><path d="m171.206 232.478-10.076 1.315-18.027-10.308a13.887 13.887 0 0 0-12.572 0l-32.694 18.72-9.892 1.316v6.943c.164.67.48 1.293.923 1.823.443.53 1.002.953 1.635 1.236l11.001 6.485a13.95 13.95 0 0 0 12.51 0l24.652-14.163a13.992 13.992 0 0 1 12.572 0l1.972 1.132a13.956 13.956 0 0 0 12.603 0l2.866-1.621a4.9 4.9 0 0 0 2.589-3.059l-.062-9.819Z" fill="#9E4036"/><path d="m90.534 249.026 10.97 6.302a13.955 13.955 0 0 0 12.603 0l24.559-14.041a13.979 13.979 0 0 1 12.572 0l1.972 1.132a13.956 13.956 0 0 0 12.603 0l2.866-1.621c3.482-2.019 3.513-5.231 0-7.219l-25.514-14.622a13.889 13.889 0 0 0-12.573 0l-40.058 22.881c-3.452 1.988-3.483 5.2 0 7.188Z" fill="#8C2F26"/><path d="m105.846 299.988-2.218-38.145a9.823 9.823 0 0 0-1.328-5.005 9.916 9.916 0 0 0-3.695-3.652l-2.126-1.162a3.381 3.381 0 0 0-3.082 0 3.072 3.072 0 0 0-1.787 2.202l-4.868 33.648a1.02 1.02 0 0 1-1.14.826h-.309a1.142 1.142 0 0 1-.702-.433 1.127 1.127 0 0 1-.222-.79l4.9-33.648a5.473 5.473 0 0 1 2.156-3.304 5.669 5.669 0 0 1 6.163-.398l2.219 1.224a12.284 12.284 0 0 1 4.629 4.467 12.178 12.178 0 0 1 1.719 6.178l2.064 37.777a.902.902 0 0 1-.226.668.922.922 0 0 1-.637.311h-.523a.957.957 0 0 1-.987-.764Z" fill="#A3A3A3"/><path d="m107.173 300.753-2.404-39.062a10.52 10.52 0 0 0-1.518-5.336 10.63 10.63 0 0 0-4.028-3.841l-2.219-1.224a4.067 4.067 0 0 0-3.574 0 3.937 3.937 0 0 0-2.25 2.753l-4.9 34.413h-.862l5.023-34.657a4.785 4.785 0 0 1 .961-2.024 4.84 4.84 0 0 1 1.781-1.372 4.988 4.988 0 0 1 4.376.184l2.219 1.193a11.515 11.515 0 0 1 4.368 4.206 11.42 11.42 0 0 1 1.61 5.827l2.28 39.032-.863-.092Z" fill="#E1E1E1"/><path d="M173.825 232.049h-.863a6.955 6.955 0 0 0-1.879-1.56l-27.117-15.539a14.903 14.903 0 0 0-13.373 0L88.1 239.421a8.31 8.31 0 0 0-1.757 1.376l-1.017.184v2.355c.085.811.383 1.585.864 2.246a4.685 4.685 0 0 0 1.879 1.517l11.678 6.668a14.904 14.904 0 0 0 13.374 0l26.007-15.172a14.916 14.916 0 0 1 13.374 0l2.095 1.193a14.97 14.97 0 0 0 13.404 0l3.082-1.744a4.748 4.748 0 0 0 1.928-1.55 4.693 4.693 0 0 0 .876-2.304l-.062-2.141Z" fill="#AB551D"/><path d="m88.067 244.713 11.678 6.699a14.914 14.914 0 0 0 13.374 0l26.007-14.897a14.813 14.813 0 0 1 13.374 0l2.095 1.193a14.875 14.875 0 0 0 13.404 0l3.082-1.744a4.092 4.092 0 0 0 1.986-1.486 4.05 4.05 0 0 0 0-4.706 4.098 4.098 0 0 0-1.986-1.486l-27.117-15.508a14.907 14.907 0 0 0-13.374 0l-42.493 24.471c-3.697 1.927-3.728 5.353-.03 7.464Z" fill="#D99849"/><path d="m122.302 243.765-19.691-11.196 12.758-7.739 19.69 11.196-12.757 7.739Z" fill="#EBEBEB"/><path d="M107.604 231.498s-.77 4.803-.863 5.629c-.092.825 6.379 14.254 6.379 14.254l6.471-3.609 11.679-16.182s-6.78-1.468-6.995-1.621c-.216-.153-7.427-.765-7.427-.765l-4.283-1.897a15.457 15.457 0 0 1 7.396-3.548c3.451-.153 15.099-.887 15.099-.887s-2.774 12.45-2.928 13c-.154.551-13.805 5.782-13.805 5.782l-5.3-5.2-5.423-4.956Z" fill="#9AA9AD" style="mix-blend-mode:multiply"/><path d="M146.46 321.186a2.41 2.41 0 0 1-2.187 0c-.617-.337-.647-.887 0-1.255a2.328 2.328 0 0 1 2.187 0c.555.398.586.949 0 1.255Z" fill="#0E0E0E"/><path d="m143.781 320.697.031-1.346 2.866-.031.185 1.285-3.082.092Z" fill="#0E0E0E"/><path d="M146.307 319.901a2.271 2.271 0 0 1-2.034 0c-.585-.306-.616-.826 0-1.163a2.271 2.271 0 0 1 2.034 0 .61.61 0 0 1 0 1.163Z" fill="#242424"/><path d="M119.591 306.962a2.35 2.35 0 0 1-2.157-.245c-.586-.397-.524-.948 0-1.223a2.355 2.355 0 0 1 2.157.244c.585.398.585.949 0 1.224Z" fill="#0E0E0E"/><path d="m117.064 305.983.247-1.285 2.835.398-.031 1.285-3.051-.398Z" fill="#0E0E0E"/><path d="M119.653 305.616a2.23 2.23 0 0 1-2.003-.245.613.613 0 0 1-.382-.566.608.608 0 0 1 .382-.566 2.148 2.148 0 0 1 2.003.215c.523.367.523.887 0 1.162Z" fill="#242424"/><path d="M145.043 319.962h.616a.895.895 0 0 0 .595-.312.877.877 0 0 0 .206-.636l-3.913-34.78a12.174 12.174 0 0 0-1.732-6.183 12.284 12.284 0 0 0-4.647-4.462l-2.095-1.132a5.77 5.77 0 0 0-5.146-.214 5.608 5.608 0 0 0-1.999 1.585 5.531 5.531 0 0 0-1.082 2.3l-8.043 28.142a.882.882 0 0 0 .09.659c.115.2.304.347.526.412h.617a.897.897 0 0 0 1.078-.612l8.043-28.173a3.053 3.053 0 0 1 1.109-1.804 3.093 3.093 0 0 1 3.636-.337l2.219 1.193a9.886 9.886 0 0 1 3.761 3.615 9.802 9.802 0 0 1 1.385 5.011l3.913 34.78a.86.86 0 0 0 .51.876.871.871 0 0 0 .353.072Z" fill="#A3A3A3"/><path d="M144.427 319.871h.863l-4.006-35.637a11.38 11.38 0 0 0-1.6-5.806 11.485 11.485 0 0 0-4.347-4.196l-2.219-1.224a4.92 4.92 0 0 0-4.316-.206 4.897 4.897 0 0 0-1.783 1.309 4.853 4.853 0 0 0-1.019 1.956l-8.289 29.06.832.214 8.289-29.029a4.004 4.004 0 0 1 2.27-2.757 4.071 4.071 0 0 1 3.585.126l2.218 1.224a10.517 10.517 0 0 1 4.023 3.839 10.425 10.425 0 0 1 1.493 5.337l4.006 35.79Z" fill="#E1E1E1"/><path d="M176.782 303.873a2.39 2.39 0 0 1-2.188 0 .677.677 0 0 1-.432-.627.67.67 0 0 1 .432-.627 2.512 2.512 0 0 1 2.188 0c.554.214.585.887 0 1.254Z" fill="#0E0E0E"/><path d="m174.133 303.291.031-1.315 2.865-.031.185 1.254-3.081.092Z" fill="#0E0E0E"/><path d="M176.627 302.527a2.294 2.294 0 0 1-2.002 0c-.586-.306-.617-.826 0-1.163a2.166 2.166 0 0 1 2.033 0 .605.605 0 0 1 .282.948.608.608 0 0 1-.313.215Z" fill="#242424"/><path d="M149.942 289.587a2.505 2.505 0 0 1-2.188-.244.682.682 0 0 1-.432-.627.674.674 0 0 1 .432-.627 2.454 2.454 0 0 1 2.157.244c.709.429.647.979.031 1.254Z" fill="#0E0E0E"/><path d="m147.385 288.608.246-1.315 2.835.428v1.254l-3.081-.367Z" fill="#0E0E0E"/><path d="M150.003 288.211a2.196 2.196 0 0 1-2.033-.214c-.524-.367-.462-.887 0-1.163a2.27 2.27 0 0 1 2.033.245.615.615 0 0 1 .383.566.612.612 0 0 1-.383.566Z" fill="#242424"/><path d="m170.59 267.716 3.821 34.046c.03.235.149.45.331.603a.957.957 0 0 0 .655.222h.585a.86.86 0 0 0 .802-.948l-3.76-33.495a5.546 5.546 0 0 1-2.434-.428ZM155.306 263.434h-.555l-6.686 23.461a.821.821 0 0 0 .616 1.071l.585.184a.904.904 0 0 0 .664-.09.885.885 0 0 0 .415-.522l6.81-23.737c-.647-.123-1.233-.276-1.849-.367Z" fill="#A3A3A3"/><path d="m170.896 267.808 3.852 34.657h.863l-3.821-34.382a4.362 4.362 0 0 1-.894-.275ZM155.304 263.434h-.308l-6.934 24.471.832.214 6.965-24.471-.555-.214Z" fill="#E1E1E1"/><path d="M151.916 286.069c-.246 1.102-.554 1.836-.924 2.05-2.435 1.407-10.046-3.946-10.046-3.946l-1.171-2.753a88.034 88.034 0 0 1 12.141 4.649Z" fill="#595959"/><path d="M151.176 285.672c-.247 1.101.185.795-.185 1.009-2.434 1.407-10.046-3.946-10.046-3.946l2.188-.459a39.894 39.894 0 0 1 8.043 3.396Z" fill="#3B3837"/><path d="m144.027 280.991 1.356-.887 7.611-21.107c0-.642 1.541-3.579 1.634-4.007a4.67 4.67 0 0 0-2.128 1.184 4.614 4.614 0 0 0-1.231 2.089l-7.242 22.728Z" fill="#0F0D0D"/><path d="M121.163 269.185c.401-.887 10.662-6.668 21.354-13l1.387-.796a10.496 10.496 0 0 1 4.345-.795s5.238-.826 12.326 4.588c3.728 2.815 9.398 4.436 12.141 7.862 1.818 2.325.647 4.007-.832 6.301a5.905 5.905 0 0 1-1.88 1.805 97.686 97.686 0 0 1-19.013 10.431c-6.409 1.957-11.401-3.243-18.488-8.657-7.088-5.414-11.556-4.282-11.556-4.282-2.126-3.457-.185-2.601.216-3.457Z" fill="#AB551D"/><path d="M120.855 270.683a6.925 6.925 0 0 1 3.081.306 29.196 29.196 0 0 1 9.337 4.313c2.496 1.866 4.622 3.854 6.625 5.567a12.62 12.62 0 0 0 5.632 3.116 12.69 12.69 0 0 0 6.447-.057 100.972 100.972 0 0 0 19.043-10.492c3.637-2.416 3.637-3.854 1.264-6.821-.432-.581-2.126-2.386-2.589-2.876a72.763 72.763 0 0 0-8.104-6.301 34.17 34.17 0 0 0-7.796-3.548 8.466 8.466 0 0 0-4.653-.918 9.893 9.893 0 0 0-4.345.765l-1.386.795a253.358 253.358 0 0 0-22.772 14.193c-.462.796-1.479 1.897.216 1.958Z" fill="#8E1F16"/><path d="M173.084 268.97a5.017 5.017 0 0 1-.814 1.967 5.073 5.073 0 0 1-1.558 1.459 100.503 100.503 0 0 1-18.89 10.401 7.246 7.246 0 0 1-2.095.306 15.484 15.484 0 0 1-8.782-2.876 27.727 27.727 0 0 1-2.281-1.866c-1.602-1.376-3.235-2.814-5.115-4.252a24.479 24.479 0 0 0-8.289-4.129 15.511 15.511 0 0 0-3.882-.612h-.925c.09-.21.193-.414.308-.612.114-.187.217-.381.308-.581.74-1.009 12.326-7.923 21.571-13.459l.893-.52 1.294-.765a12.978 12.978 0 0 1 3.082-.703h1.695a20.751 20.751 0 0 1 11.493 4.527l2.743 1.957a33.1 33.1 0 0 1 5.639 4.619c.37.388.74.816 1.109 1.285 1.294 1.621 2.774 2.233 2.496 3.854Z" fill="#BC7C72"/><path d="m153.795 253.89-28.472 16.212a15.525 15.525 0 0 0-3.883-.611h-.924c.09-.21.193-.415.308-.612.114-.188.217-.382.308-.581.739-1.01 12.326-7.923 21.57-13.46l.894-.52 1.294-.764c.994-.36 2.029-.596 3.081-.704h.308a3.47 3.47 0 0 1 .802 0h.308c1.529.012 3.035.368 4.406 1.04Z" fill="#49A67D"/><path d="M173.085 268.97a5.062 5.062 0 0 1-2.373 3.426 100.465 100.465 0 0 1-18.889 10.4 7.19 7.19 0 0 1-2.096.306 15.488 15.488 0 0 1-8.782-2.875l28.535-16.396c.369.388.739.816 1.109 1.285 1.294 1.621 2.773 2.233 2.496 3.854Z" fill="#AC5C53"/><path d="M147.262 256.948a54.318 54.318 0 0 0-13.836 3.977 34 34 0 0 0-6.163 3.64c-1.572 1.224-3.42 1.652-5.023 2.814a61.822 61.822 0 0 1 6.625 2.111l3.39 1.529c.678.337 2.034 1.377 2.773 1.377a34.229 34.229 0 0 1 4.53 2.508c1.06.665 2.199 1.2 3.39 1.591l1.602.581c2.569.737 5.279.843 7.898.31a16.568 16.568 0 0 0 7.139-3.369c.68-.465 1.3-1.009 1.849-1.621a5.368 5.368 0 0 0 1.418-3.395c0-.796-.308-1.499-.308-2.264a10.483 10.483 0 0 0-1.744-4.587 10.57 10.57 0 0 0-3.649-3.305 14.36 14.36 0 0 0-9.891-1.897Z" fill="#E86868" style="mix-blend-mode:multiply"/><path d="M175.182 271.907c-.247 1.101-.185 1.315-.463 1.651-.708.887-2.126 3.059-4.375 1.407.344-.232.664-.498.955-.795.255-.28.492-.577.709-.887l.37-.581 1.109.581c.308.184.647-1.927.955-1.774l.74.398Z" fill="#595959"/><path d="M174.44 271.509c-.246 1.101.185.795-.185 1.009-.893.52-1.078 2.845-3.081 1.652.255-.28.491-.577.709-.887l.369-.581v-.153c.832.52 0 .214 1.017.734.308.184.647-1.927.955-1.774h.216Z" fill="#3B3837"/><path d="M167.292 261.323a6.83 6.83 0 0 1-1.603 3.487 50.356 50.356 0 0 1-9.244 6.669 34.43 34.43 0 0 1-16.178 2.355c-6.163-1.071-12.849-3.304-14.174-3.456l-1.572-.215c-1.756-.275-4.684-.734-7.488-1.284-1.972-.398-3.913-.796-5.331-1.193-1.417-.398-2.218-.734-2.342-1.04a21.333 21.333 0 0 1-.986-4.772v-.52a16.647 16.647 0 0 1 .185-3.671 6.107 6.107 0 0 1 1.818-3.671 5.482 5.482 0 0 1 3.945-1.223c1.479 0 6.532.428 10.754.734h.77l5.516.428 10.693-.428 16.547-2.508s6.964 1.774 8.227 6.27a8.901 8.901 0 0 1 .463 4.038Z" fill="#7C4F29"/><path d="M111.857 267.686c-1.325-.367-2.219-.734-2.342-1.04a19.563 19.563 0 0 1-.863-8.963 6.102 6.102 0 0 1 1.818-3.67 7.74 7.74 0 0 0-1.325 6.117 19.1 19.1 0 0 0 1.356 4.65c.431.918.863 1.927 1.356 2.906Z" fill="#C9B9B3" style="mix-blend-mode:multiply"/><path d="m125.999 253.553-11.987 6.821a13.095 13.095 0 0 1-5.577 1.499v-.52a16.52 16.52 0 0 1 .185-3.67 6.097 6.097 0 0 1 1.818-3.671 5.482 5.482 0 0 1 3.944-1.224c1.479 0 6.533.429 10.754.735l.863.03Z" fill="#8C2F26"/><path d="m125.23 253.492-11.217 6.516a12.398 12.398 0 0 1-5.639 1.499 16.647 16.647 0 0 1 .185-3.671l.185-.918c.194-.66.485-1.289.863-1.866.224-.322.482-.619.77-.887a5.482 5.482 0 0 1 3.945-1.223h.184l3.513.214 7.211.336Z" fill="#9E4036"/><path d="m118.173 252.972-4.16 2.325a12.148 12.148 0 0 1-5.269 1.468c.194-.66.485-1.289.863-1.866.224-.322.482-.619.77-.887a5.483 5.483 0 0 1 3.945-1.224h.184l3.667.184Z" fill="#8C2F26"/><path d="M114.475 252.758h.185l-1.54.887a12.532 12.532 0 0 1-3.421 1.254c.225-.322.483-.619.771-.887a5.463 5.463 0 0 1 1.876-1.025 5.5 5.5 0 0 1 2.129-.229Z" fill="#AB551D"/><path d="M167.294 261.323a6.83 6.83 0 0 1-1.603 3.487 50.356 50.356 0 0 1-9.244 6.669 34.43 34.43 0 0 1-16.178 2.355c-6.163-1.07-12.849-3.303-14.174-3.456l-1.572-.214c-1.756-.276-4.684-.735-7.488-1.285.462-1.621 3.513-1.744 7.18-1.254a101.765 101.765 0 0 1 14.883 3.701 27.912 27.912 0 0 0 9.245-1.438 90.547 90.547 0 0 0 13.034-6.118l5.917-2.447Z" fill="#C9B9B3" style="mix-blend-mode:multiply"/><path d="M130.529 225.167c-.585 0-5.392.734-5.392.734a10.59 10.59 0 0 0-1.818 1.04 5.348 5.348 0 0 1-2.034.856l-5.423.275c-1.972 0-1.664-1.131-1.664-1.131l-2.188 1.131h-1.171c-.616 0-1.233.001-1.263-.244-.031-.245 0-.459.339-.612l3.081-2.141 3.081-1.438a8.287 8.287 0 0 1 1.726-.856c.709-.215 5.3-.459 5.516-.582.216-.122 9.244-1.835 9.244-1.835s2.25-.428 3.421-.52c1.171-.092-4.438 4.803-5.455 5.323Z" fill="#FFCDAB"/><path d="m114.013 226.971-2.188 1.132h-1.171l3.082-1.53s.462-.887 2.126-.887a34.179 34.179 0 0 0 4.006-.275l-.832.428-3.76.52s-1.263-.183-1.263.612Z" fill="#EDC0AF" style="mix-blend-mode:multiply"/><path d="M130.531 225.167c-.586 0-5.393.734-5.393.734a10.59 10.59 0 0 0-1.818 1.04 5.348 5.348 0 0 1-2.034.856l-5.423.276c-1.972 0-1.664-1.132-1.664-1.132 0 .826 2.558.673 2.558.673s3.944 0 4.776-.306c.832-.306 1.972-1.805 3.081-1.897 1.11-.091 5.547-1.07 5.763-1.07.215 0 .092.336.154.826Z" fill="#EDC0AF" style="mix-blend-mode:multiply"/><path d="M126.338 221.006a4.173 4.173 0 0 0-1.109 2.141c.25 1.27.686 2.496 1.294 3.641l6.902-1.346s4.746-.643 4.992-1.254a28.329 28.329 0 0 0 0-4.161l-1.787-.856-10.292 1.835Z" fill="#217EFF"/><path d="M134.629 190.479s-5.67 3.548-6.163 5.2a25.066 25.066 0 0 0 .462 6.699c0 .55 1.602 5.781 1.602 5.781s1.787 4.374 2.681 4.741c.925.307 1.873.543 2.835.704l.277 1.346v2.325c.911.23 1.872.166 2.743-.184.863-.275 1.695-.734 2.557-1.071a8.825 8.825 0 0 0 3.082-1.621c.339-.336.616-.764.955-1.132a6.283 6.283 0 0 0 1.171-1.223c.282-.569.379-1.21.277-1.835a3.863 3.863 0 0 0-.184-1.346 6.075 6.075 0 0 1-.617-3.824c.185-2.722 1.449-6.118-.462-7.739-1.91-1.621-2.897-2.661-3.42-2.753-.524-.092-7.796-4.068-7.796-4.068Z" fill="#FFCDAB"/><path d="M167.23 256.949v1.07a11.289 11.289 0 0 1-3.081 6.118 26.698 26.698 0 0 1-3.636 3.518 13.141 13.141 0 0 1-6.382 3.183 13.184 13.184 0 0 1-7.115-.614c-2.311-.887-4.037-3.732-6.163-5.659a10.254 10.254 0 0 0-1.787-1.223 7.058 7.058 0 0 1-2.635-1.945 6.977 6.977 0 0 1-1.463-2.919v-.214c0-.704 0-1.315.215-2.264a23.308 23.308 0 0 0-1.109-4.588s-1.017-6.118-1.387-7.77a8.622 8.622 0 0 0-.431-1.162v-.184c-.462-1.04-1.14-2.477-1.88-4.037a48.383 48.383 0 0 1-3.913-9.177 21.764 21.764 0 0 1 3.081-4.772c.586-.795 3.082-3.059 4.838-4.864.586-.581 1.11-1.07 1.448-1.437.149-.151.283-.315.401-.49.616-.887 9.892-5.72 10.415-6.118a6.37 6.37 0 0 1 2.928-.489h.154c.924 0 3.081-.245 4.098-.367h.77a10.499 10.499 0 0 1 3.084 2.833 10.443 10.443 0 0 1 1.724 3.805c.184 1.009 1.571 5.873 1.571 7.158v.978c0 2.417-.524 7.892-.524 8.78a19.407 19.407 0 0 0 2.126 6.576 70.49 70.49 0 0 1 3.821 8.932c.278.673.493 1.285.678 1.713.207.604.342 1.231.401 1.866a17.195 17.195 0 0 1-.247 3.763Z" fill="#389AF5"/><path d="m132.102 242.174.03.03-.03-.03Z" fill="#1F3858"/><path d="M140.67 264.138v.673a8.78 8.78 0 0 0-1.788-1.224 6.825 6.825 0 0 1-2.622-2.183 6.75 6.75 0 0 1-1.229-3.17c0-.704 0-1.285.215-2.233a23.274 23.274 0 0 0-1.109-4.588s-1.017-6.118-1.387-7.77a56.718 56.718 0 0 0-2.465-5.506c4.16-2.05 7.704-3.518 7.704-3.518s.154 8.932-.185 12.022a15.218 15.218 0 0 0 1.417 6.546 66.806 66.806 0 0 0 .185 7.311c.216.856 1.726-1.224 1.264 3.64Z" fill="#C9B9B3" style="mix-blend-mode:multiply"/><path d="M115.246 231.59a5.058 5.058 0 0 1-.647 2.142c-.432.428 0 1.56 0 1.56a61.209 61.209 0 0 1-2.219 9.176c-.246-.367-1.078-2.263-1.725-3.762-.278-.704-.555-1.346-.648-1.652a41.173 41.173 0 0 0-1.787-4.129 3.93 3.93 0 0 1-.37-1.836 11.66 11.66 0 0 1-.215-1.59c.082-.494.249-.97.493-1.407.095-.366.219-.724.37-1.071 0-.245 1.509-1.04 1.54-1.193.031-.153.493-.642.678-.856.398-.274.85-.462 1.325-.551.247 0 .462.245.617.489.114.168.197.354.246.551l.277 1.193.432-.581h.739c.185 0 0 1.407 0 1.407.315.308.584.658.802 1.04.067.353.098.711.092 1.07Z" fill="#FFCDAB"/><path d="M139.837 188.582h-3.359c-.978.097-1.947.271-2.897.52l-1.356 1.071a6.165 6.165 0 0 0-2.064 1.284c-.215.293-.411.6-.586.918 0 0-1.078 1.805-1.417 2.447-.257.427-.405.91-.431 1.407 0 .337 1.325 2.172 1.14 3.059-.185.887.893 2.386.893 2.386a15.757 15.757 0 0 1 1.418 2.172c0 .275.524 1.529.524 1.529l.369-.795s-.462-1.958.586-2.019c1.048-.061 2.064-.917 3.944 1.744a6.47 6.47 0 0 0 2.061 2.087 6.532 6.532 0 0 0 2.777.972 16.084 16.084 0 0 0 4.561-.673c.385-.395.605-.919.616-1.469.444-1.744.794-3.51 1.048-5.291a13.713 13.713 0 0 0-1.048-7.128 12.345 12.345 0 0 0-6.779-4.221Z" fill="#704125"/><path d="M134.999 203.969c.217.558.341 1.146.37 1.743a5.258 5.258 0 0 1-.37 1.836h-.585c-.185 0-.277-.673-.339-.979a8.939 8.939 0 0 0-.493-1.744c-.277-.397-1.387-2.263-1.14-2.753.246-.489 2.342.795 2.342.795l.215 1.102Z" fill="#FFD9C2"/><path d="M109.545 229.174c.11-.409.255-.808.432-1.193l-.863.887-.493 1.01s-.247.764-.308.917c-.062.153.308 2.08.308 2.08s.77 1.652.893 2.08c.113.43.175.872.185 1.316l.956.887s-.185 2.416 0 3.579c-.278-.704-.555-1.346-.648-1.652a41.19 41.19 0 0 0-1.787-4.13 3.937 3.937 0 0 1-.37-1.866 11.66 11.66 0 0 1-.215-1.59c.082-.494.249-.97.493-1.407.095-.366.219-.724.37-1.071 0-.245 1.509-1.04 1.54-1.193.031-.153.493-.642.678-.856a18.107 18.107 0 0 0-.801 2.477s-.37-.214-.37-.275ZM113.429 230.703a1.658 1.658 0 0 1-.739-.735c-.216-.52 0-1.437 0-1.743v-1.438c.114.168.197.354.246.551l.277 1.193v.428l.216 1.744Z" fill="#EDC0AF" style="mix-blend-mode:multiply"/><path d="M137.925 234.619a7.947 7.947 0 0 1-1.078 3.977 47.858 47.858 0 0 1-15.993 13.031 3.886 3.886 0 0 1-2.219-.245 8.891 8.891 0 0 1-3.543-3.059v-.826a57.197 57.197 0 0 1 3.79-6.607c.894-1.438 1.726-2.631 2.095-3.059 1.14-1.407 3.082-8.045 6.687-11.471 3.605-3.426 9.029 3.793 9.029 3.793a10.03 10.03 0 0 1 1.232 4.466Z" fill="#2F86FF"/><path d="M119.158 250.28c-.185.367-.339.734-.524 1.132-5.207-.581-9.429-11.991-9.675-12.848a2.317 2.317 0 0 1 .339-2.233c.296-.413.626-.802.986-1.162a3.433 3.433 0 0 1 3.913-.612s2.465 4.099 2.681 4.405l2.157 1.958.555.52s2.064 3.028-.432 8.84Z" fill="#217EFF"/><path d="M137.924 234.619a7.947 7.947 0 0 1-1.078 3.977 47.858 47.858 0 0 1-15.993 13.031 3.886 3.886 0 0 1-2.219-.245c-5.207-.581-9.429-11.991-9.675-12.847a2.309 2.309 0 0 1 .339-2.233 52.815 52.815 0 0 0 3.42 7.402c.955 1.56 1.787 2.814 2.527 3.793a16.789 16.789 0 0 0 2.126 2.478 2.238 2.238 0 0 0 1.787.275 12.354 12.354 0 0 0 3.082-.979 74.233 74.233 0 0 0 15.13-13.734l.554-.918Z" fill="#C9B9B3" style="mix-blend-mode:multiply"/><path d="m109.944 222.444-.493.429 3.421 6.117.4-.458-3.328-6.088Z" fill="#FF7500"/><path d="M152.284 259.366c-.432 2.018-1.973 15.141-1.849 16.089 0 0 .955 1.958 1.386 1.836a130.39 130.39 0 0 0 15.408-10.033 132.916 132.916 0 0 0 13.281-8.351 43.26 43.26 0 0 0 .924-14.805 4.23 4.23 0 0 0-.339-1.01c-1.417-2.539-6.81-.734-16.023 4.252a35.674 35.674 0 0 0-11.433 8.259 6.58 6.58 0 0 0-1.355 3.763Z" fill="#8E1F16"/><path d="m153.795 255.603 3.574 1.315 24.221-12.816a4.32 4.32 0 0 0-.339-1.01c-1.418-2.539-6.81-.734-16.024 4.252a35.68 35.68 0 0 0-11.432 8.259Z" fill="#BC7C72"/><path d="m156.752 265.33-2.188.459s-2.157 13.276-3.543 19.485c-.247 1.071-.524 1.805-.894 2.019l1.849-.795h.339c2.434-1.499 4.437-21.168 4.437-21.168Z" fill="#595959"/><path d="m157.646 266.126-2.188.459s-2.157 13.275-3.543 19.485c-.247 1.071-.555 1.805-.925 2.019l1.88-.795h.308c2.434-1.499 4.468-21.168 4.468-21.168Z" fill="#A3A3A3"/><path d="m180.018 251.197-2.096.49s-2.403 15.294-3.636 19.424c-.246 1.101-.524 1.957-.893 2.141l.215.428 1.633-1.346a.525.525 0 0 0 .309 0c2.465-1.468 4.468-21.137 4.468-21.137Z" fill="#595959"/><path d="m180.911 251.993-2.188.428s-2.157 13.307-3.543 19.486c-.247 1.101-.555 1.805-.925 2.019l-.739.917 2.372-1.315s.463-.428.555-.489c2.434-1.377 4.468-21.046 4.468-21.046Z" fill="#A3A3A3"/><path d="M153.488 260.007a171.042 171.042 0 0 0-1.849 17.283s1.201.887 1.664.734c1.017-.367 2.033-1.345 4.19-2.416 4.9-2.447 11.094-5.812 11.094-5.812a132.727 132.727 0 0 0 13.219-8.381 47.775 47.775 0 0 0 1.017-15.662 10.357 10.357 0 0 0-.432-1.04 5.587 5.587 0 0 0-.246-.581 2.446 2.446 0 0 0-.841-1.113 2.483 2.483 0 0 0-1.316-.478c-2.65 0-7.211 1.927-13.651 5.384-8.012 4.343-10.908 7.188-12.048 9.176a7.535 7.535 0 0 0-.801 2.906Z" fill="#9E4036"/><path d="M155.707 262.669c0 .734.524 1.04 1.202.673.341-.222.626-.52.829-.871.204-.35.321-.744.342-1.148 0-.734-.524-1.04-1.171-.673a2.542 2.542 0 0 0-1.202 2.019ZM155.027 270.469c0 .734.524 1.04 1.202.673a2.565 2.565 0 0 0 1.171-2.019c0-.734-.524-1.04-1.171-.673-.349.216-.64.512-.85.864-.209.351-.33.748-.352 1.155ZM177.676 250.495c0 .764.524 1.07 1.171.673a2.563 2.563 0 0 0 1.171-2.019c0-.734-.524-1.04-1.171-.673a2.626 2.626 0 0 0-1.171 2.019ZM177 258.325c0 .734.524 1.04 1.171.642a2.54 2.54 0 0 0 1.171-2.018c0-.735-.524-1.04-1.171-.643a2.541 2.541 0 0 0-1.171 2.019Z" fill="#A3A3A3"/><path d="M116.725 88.158 3.42 168.209 0 166.313v-86.75L121.994 7.677l3.452 1.896-8.721 78.584Z" fill="#2C2723"/><path d="M125.447 96.325 3.422 168.209v-86.72L125.447 9.574v86.751Z" fill="#756E67"/><path d="M5.453 83.02 123.01 13.765V92.96L5.453 162.215V83.019Z" fill="#F2F2F2"/><path d="m17.072 129.147 39.104-22.422V67.969L17.072 90.39v38.756Z" fill="#3C3B39"/><path d="m30.598 95.591 12.449-7.127v-12.97l-12.45 7.158v12.94ZM43.047 102.657l13.127-7.556V80.94l-13.127 7.524v14.194ZM17.072 116.668l13.528-7.739v-12.48l-13.528 7.769v12.45Z" fill="#3C3B39"/><path d="m17.072 129.147 39.104-22.422v-12.48l-39.104 22.422v12.48Z" fill="#3C3B39"/><path d="M46.808 111.467V99.629l-.462.245v11.838l.462-.245Z" fill="#E0E0E0"/><path d="M56.176 106.694v6.638l-39.104 22.391v-6.637l39.104-22.392ZM17.072 90.39l14.329-8.228v4.527a16.575 16.575 0 0 1-1.924 7.505 16.706 16.706 0 0 1-5.133 5.832l-7.272 4.191V90.391ZM56.176 67.969l-13.96 8.014v4.497c0 5.139 3.082 7.494 7.057 5.261l6.903-3.946V67.969Z" fill="#5BAE36"/><path d="m36.824 89.871 4.93-2.844v-.49l-4.93 2.814v.52Z" fill="#E0E0E0"/><path d="M36.824 79.074V89.87l.061-.03V79.043l-.06.03Z" fill="#E0E0E0"/><path d="M43.14 89.534a1.426 1.426 0 0 1-.71-.184 1.869 1.869 0 0 1-.77-1.713v-11.41 11.41a1.762 1.762 0 0 0 .74 1.652 1.83 1.83 0 0 0 1.818-.183l11.771-6.76-11.802 6.76c-.309.224-.668.371-1.047.428ZM17.072 128.536l-.031-.061 39.104-22.422.061.061-39.134 22.422ZM17.072 104.829l12.326-6.974a5.739 5.739 0 0 0 1.847-1.923 5.69 5.69 0 0 0 .772-2.543V81.918v11.41a5.72 5.72 0 0 1-.823 2.616 5.772 5.772 0 0 1-1.95 1.941l-12.172 6.944Z" fill="#6FFFE9"/><path d="m47.794 92.839-2.866 1.621v.092l2.866-1.652v-.061ZM31.894 107.582V96.295l-.462.275v11.257l.462-.245Z" fill="#E0E0E0"/><path d="m28.627 103.819 2.835-1.621v-.092l-2.835 1.622v.091ZM24.404 106.236l2.866-1.621v-.092l-2.866 1.622v.091ZM20.213 108.622l2.866-1.621v-.092l-2.866 1.652v.061ZM53.338 89.719l2.835-1.622v-.06l-2.835 1.62v.062ZM49.15 92.135l2.835-1.622v-.06l-2.835 1.62v.062ZM53.833 101.954l-2.835 1.621v.061l2.835-1.621v-.061ZM46.809 106.053l2.835-1.652v-.061l-2.835 1.621v.092ZM34.236 113.21l2.835-1.652v-.061l-2.835 1.621v.092ZM30.045 115.597l2.835-1.621v-.092l-2.835 1.652v.061ZM25.852 117.982l2.834-1.621v-.061l-2.834 1.621v.061ZM21.63 120.369l2.867-1.621v-.061l-2.866 1.621v.061ZM17.441 122.785l2.835-1.652v-.061l-2.835 1.621v.092Z" fill="#E0E0E0"/><path d="m17.072 116.422 14.822-8.503v-.062l-14.822 8.474v.091ZM17.072 116.698l14.822-8.473v-.092l-14.822 8.504v.061ZM44.342 100.791 56.175 94v-.092L44.342 100.7v.092ZM44.342 101.067l11.833-6.791v-.061l-11.833 6.791v.061Z" fill="#6FFFE9"/><path d="m30.907 96.814-.616.337v.092l.616-.337v-.092ZM31.86 96.264l-.616.336v.092l.616-.337v-.091ZM32.818 95.714l-.586.336v.092l.586-.336v-.092ZM33.771 95.163l-.586.337v.091l.586-.336v-.092ZM34.728 94.612l-.585.337v.091l.585-.336v-.092ZM35.683 94.061l-.585.337v.092l.585-.337v-.092ZM36.638 93.512l-.585.336v.092l.585-.337v-.091ZM37.624 92.96l-.616.336v.092l.616-.336v-.092ZM38.581 92.41l-.616.337v.091l.616-.336v-.092ZM39.534 91.86l-.616.336v.092l.616-.337v-.092ZM40.491 91.309l-.616.336v.092l.616-.337v-.091ZM41.445 90.758l-.586.336v.123l.586-.367v-.092ZM42.402 90.207l-.586.337v.122l.586-.367v-.092ZM43.355 89.657l-.585.367v.061l.585-.336v-.092ZM32.818 93.144l-.586.336v.092l.586-.337v-.091ZM33.771 92.594l-.586.336v.092l.586-.337v-.091ZM34.728 92.043l-.585.336v.092l.585-.336v-.092ZM35.683 91.492l-.585.337v.092l.585-.337v-.092ZM36.638 90.941l-.585.337v.092l.585-.337v-.092ZM37.624 90.392l-.616.336v.092l.616-.337v-.091ZM38.581 89.84l-.616.336v.092l.616-.336v-.092ZM39.534 89.29l-.616.336v.092l.616-.336v-.092ZM40.491 88.74l-.616.336v.092l.616-.337v-.092ZM41.445 88.189l-.586.336v.092l.586-.337v-.091ZM41.846 91.584v-.612l-.092.03v.643l.092-.061ZM41.846 92.899v-.612l-.092.03v.643l.092-.061ZM41.846 94.215v-.612l-.092.031v.642l.092-.06ZM41.846 95.53v-.612l-.092.061v.612l.092-.061ZM41.846 96.876v-.643l-.092.062v.611l.092-.03ZM41.846 98.191v-.642l-.092.061v.612l.092-.03ZM41.846 99.507v-.643l-.092.061v.612l.092-.03ZM41.846 100.822v-.642l-.092.061v.612l.092-.031ZM41.846 102.138v-.643l-.092.061v.612l.092-.03ZM41.846 103.453v-.612l-.092.03v.643l.092-.061ZM41.846 104.768v-.612l-.092.031v.642l.092-.061ZM41.846 106.083v-.611l-.092.03v.643l.092-.062ZM41.846 107.398v-.612l-.092.031v.642l.092-.061ZM41.846 108.714v-.611l-.092.03v.643l.092-.062ZM41.846 110.03v-.612l-.092.031v.642l.092-.061ZM41.846 111.344v-.612l-.092.031v.642l.092-.061ZM41.846 112.66v-.612l-.092.061v.612l.092-.061ZM41.846 114.006v-.643l-.092.061v.612l.092-.03ZM44.094 90.3v-.612l-.06.03v.642l.06-.06ZM44.094 91.615v-.612l-.06.03v.643l.06-.061ZM44.094 92.93v-.612l-.06.03v.643l.06-.06ZM44.094 94.245v-.612l-.06.03v.643l.06-.061ZM44.094 95.561v-.612l-.06.03v.643l.06-.061ZM44.094 96.876v-.612l-.06.03v.643l.06-.061ZM44.094 98.19v-.61l-.06.03v.642l.06-.061ZM44.094 99.506v-.612l-.06.062v.611l.06-.06ZM44.094 100.852v-.642l-.06.061v.612l.06-.031ZM44.094 102.168v-.643l-.06.062v.611l.06-.03ZM44.094 103.483v-.642l-.06.061v.612l.06-.031ZM44.094 104.799v-.643l-.06.061v.612l.06-.03ZM44.094 106.114v-.642l-.06.061v.612l.06-.031ZM44.094 107.429v-.643l-.06.061v.612l.06-.03ZM44.094 108.745v-.642l-.06.061v.612l.06-.031ZM44.094 110.06v-.612l-.06.031v.642l.06-.061ZM44.094 111.375v-.611l-.06.03v.643l.06-.062ZM44.094 112.69v-.612l-.06.031v.642l.06-.061Z" fill="#E0E0E0"/><path d="m37.318 86.965 3.606-2.08V77.85l-3.606 2.08v7.035Z" fill="#0293F7"/><path d="M30.014 108.071v-4.13l-6.194 3.549v4.129l6.194-3.548Z" fill="#FFD300"/><path d="M54.42 100.7v-4.13l-6.193 3.549v4.129l6.193-3.548Z" fill="#FF392F"/><path d="M20.707 91.064a2.677 2.677 0 0 1-.347 1.275c-.22.39-.535.719-.916.958-.74.397-1.325 0-1.356-.796.013-.449.138-.888.364-1.278a2.73 2.73 0 0 1 .93-.955c.74-.397 1.325-.03 1.325.796ZM20.707 131.258a2.676 2.676 0 0 1-.347 1.275c-.22.39-.535.719-.916.958-.74.398-1.325 0-1.356-.795a2.727 2.727 0 0 1 1.294-2.233c.74-.398 1.325-.031 1.325.795ZM55.713 111.405a2.65 2.65 0 0 1-1.294 2.233c-.709.398-1.325 0-1.325-.795.007-.45.13-.892.356-1.282.227-.391.55-.718.938-.951.709-.489 1.325-.031 1.325.795ZM55.713 70.814c-.008.45-.13.891-.357 1.282a2.67 2.67 0 0 1-.937.95c-.709.398-1.325 0-1.325-.795.007-.45.13-.891.356-1.282a2.67 2.67 0 0 1 .938-.95c.709-.398 1.325-.031 1.325.795Z" fill="#E8203D"/><path d="m106.033 35.056-8.197 4.68-5.793 9.91v9.33l5.793 3.304 8.197-4.71 5.762-9.912v-9.33l-5.762-3.272Z" fill="#BF2F38"/><path d="M97.434 52.644a3.437 3.437 0 0 1-.431 1.713 3.071 3.071 0 0 1-1.233 1.224c-.4.271-.871.42-1.356.428v-1.285c.43.095.88.03 1.263-.183.2-.115.36-.285.463-.49.117-.194.181-.416.185-.642a.547.547 0 0 0-.216-.52 1.268 1.268 0 0 0-.616-.276 1.978 1.978 0 0 1-.617-.244 1.713 1.713 0 0 1-.308-.46 2.464 2.464 0 0 1 0-.764A3.043 3.043 0 0 1 95 49.493a3.07 3.07 0 0 1 1.172-1.193 2.17 2.17 0 0 1 1.325-.305l-.37 1.223h-.432a1.15 1.15 0 0 0-.462 0 .859.859 0 0 0-.4.459c-.117.193-.17.417-.154.642a.7.7 0 0 0 .154.49 1.3 1.3 0 0 0 .647.244c.313.055.596.218.8.46.186.346.24.748.155 1.131ZM100.053 53.041l-1.14.643v-5.782l-1.17.673v-1.132l3.45-1.988v1.132l-1.14.673v5.781ZM105.909 46.22a7.39 7.39 0 0 1-.555 3.059 3.953 3.953 0 0 1-1.602 1.835c-.709.398-1.264.398-1.633 0a3.494 3.494 0 0 1-.555-2.325 7.134 7.134 0 0 1 .555-3.058c.327-.781.9-1.436 1.633-1.866.709-.398 1.232-.398 1.602 0 .46.695.656 1.53.555 2.355Zm-3.082 1.835a3.457 3.457 0 0 0 .278 1.652c0 .306.431.367.77.184.339-.184 1.017-1.407 1.017-3.06 0-1.651-.339-2.202-1.017-1.835-.383.248-.658.63-.77 1.071a5.867 5.867 0 0 0-.401 1.988h.123ZM110.101 42.488a4.021 4.021 0 0 1-.463 1.958 3.684 3.684 0 0 1-1.417 1.407l-.37.03v2.509l-1.14.642v-6.79l1.541-.857c1.263-.703 1.849-.306 1.849 1.101Zm-2.157 2.417h.215c.256-.147.468-.358.617-.612a2.21 2.21 0 0 0 .184-.979.973.973 0 0 0-.184-.703h-.555l-.37.214.093 2.08Z" fill="#fff"/><path d="m63.508 71.211 10.2 5.751c.523.306 1.386-.184 1.941-1.101l10.169-17.436c.554-.918.554-1.896 0-2.202l-10.169-5.751c-.555-.306-1.418.183-1.941 1.101l-10.2 17.436c-.524.918-.524 1.896 0 2.202Z" fill="#FFA415"/><path d="m77.036 69.805-4.776 2.752V57.63l4.776-2.57v14.745Z" fill="#0D0000"/><path d="M74.664 70.508c-.986.551-1.787 0-1.787-1.01a3.864 3.864 0 0 1 .523-1.742c.31-.532.744-.983 1.264-1.316.986-.581 1.787 0 1.787 1.01a3.894 3.894 0 0 1-.525 1.74c-.311.532-.743.983-1.262 1.318Z" fill="#00674C"/><path d="M74.664 61.699c-.52.333-.954.784-1.264 1.315-.311.532-.49 1.13-.523 1.743 0 1.102.801 1.56 1.787 1.01a3.99 3.99 0 0 0 1.255-1.322c.31-.53.492-1.125.532-1.737 0-1.132-.8-1.59-1.787-1.01Z" fill="#FFD033"/><path d="M74.664 60.995c-.986.581-1.787 0-1.787-1.01.04-.611.222-1.206.532-1.737.31-.53.74-.983 1.255-1.321.986-.55 1.787 0 1.787 1.01a3.864 3.864 0 0 1-.522 1.742c-.311.532-.744.983-1.265 1.316Z" fill="#BF2F38"/><path d="M6.994 83.937 123.01 15.57v-1.804L5.453 83.019v79.196l1.54-.887v-77.39Z" fill="#A4A094"/><path d="M121.254 14.775V91.89l-115.8 68.214v2.111L123.01 92.961V13.766l-1.756 1.01Z" fill="#3D3834"/><path d="m121.254 91.89 1.756 1.07V13.767l-1.756 1.01V91.89Z" fill="#2C2723"/><path d="m0 79.562 3.42 1.927L125.446 9.574l-3.452-1.896L0 79.562ZM64.71 10.156a28.444 28.444 0 0 1-3.842 13.454 28.698 28.698 0 0 1-9.809 10.038c-7.611 4.1-13.897.306-14.051-8.504a28.444 28.444 0 0 1 3.788-13.434 28.694 28.694 0 0 1 9.74-10.058c7.61-4.099 13.897-.306 14.174 8.504Z" fill="#3D3834"/><path d="M66.036 10.86a28.444 28.444 0 0 1-3.863 13.403 28.697 28.697 0 0 1-9.788 9.997c-7.61 4.1-13.897.306-14.051-8.503a28.353 28.353 0 0 1 3.86-13.392 28.606 28.606 0 0 1 9.79-9.978c7.612-4.13 13.898-.337 14.052 8.473Z" fill="#756E67"/><path d="M64.25 11.502a24.342 24.342 0 0 1-3.637 11.96 25.943 25.943 0 0 1-7.087 7.892c-.462.306-.894.612-1.356.857a12.902 12.902 0 0 1-3.544 1.438 6.517 6.517 0 0 1-3.266.094 6.487 6.487 0 0 1-2.896-1.502 5.73 5.73 0 0 1-1.14-1.407c-.155-.275-.278-.55-.401-.826v-.183c0-.306-.216-.612-.308-.948a.424.424 0 0 0 0-.184c0-.336 0-.673-.185-1.01-.185-.336 0 0 0-.213v-3.977a.755.755 0 0 0 0-.245l.185-1.223v-.276l.277-1.223a.877.877 0 0 0 0-.276l.37-1.254v-.275l.462-1.224v-.275c0-.428.339-.856.524-1.254v-.275c.185-.398.4-.796.616-1.193v-.276c.216-.397.462-.795.709-1.193l.154-.244c0-.245.308-.52.493-.765.071-.13.154-.252.247-.367l.184-.245.802-1.101.184-.214c.278-.367.555-.704.863-1.04l.185-.214.925-.949.184-.183.956-.887.554-.184.956-.764h.215l.986-.673.432-.245.554-.306h.216a7.453 7.453 0 0 1 1.017-.459h.216l.986-.306h.215l1.233-.826h.216a6.205 6.205 0 0 1 3.29.31 6.16 6.16 0 0 1 2.657 1.954 10.04 10.04 0 0 1 1.756 6.179Z" fill="#F2F2F2"/><path d="M40.059 25.664v-1.193a.853.853 0 0 0 0-.275l.184-1.193v-.275l.463-1.316a.577.577 0 0 0 0-.244l.37-1.255v-.275l.616-1.285v-.275c0-.398.339-.826.524-1.223v-.276c.184-.428.4-.826.616-1.223l.308-.061c.216-.429.462-.796.709-1.193a.672.672 0 0 1 .154-.245 6.51 6.51 0 0 1 .493-.765l.246-.398.185-.244c.247-.367.524-.734.801-1.07l.185-.246.863-1.009.185-.214.925-.979.184-.183.956-.857.277-.245.955-.795.216-.153 1.017-.581.431-.275.555-.306h.216a7.454 7.454 0 0 1 1.016-.46h.216l.986-.336h.216a5.27 5.27 0 0 1 .955-.183h.216a6.205 6.205 0 0 1 3.29.31 6.16 6.16 0 0 1 2.657 1.953 9.897 9.897 0 0 1 2.003 5.415V11.5a10.04 10.04 0 0 0-1.757-6.117 6.158 6.158 0 0 0-2.646-1.988 6.206 6.206 0 0 0-3.3-.337h-.216l-.863.245h-.216l-.986.306h-.216c-.35.127-.69.28-1.017.458h-.215l-.555.306-.431.245-.986.673h-.216l-1.325 1.346-.216.183-.955.887-.185.184-.924.948-.154.337c-.309.336-.586.673-.863 1.04l-.185.214-.801 1.101-.185.245a2.548 2.548 0 0 0-.247.367c-.185.245-.339.52-.493.765l-.154.244c-.246.398-.493.796-.709 1.193v.276c-.215.397-.43.795-.616 1.193v.275c-.185.398-.37.826-.524 1.254v.275l-.462 1.224v.275l-.37 1.254a.883.883 0 0 1 0 .276l-.277 1.223v.276l-.924 1.1a.761.761 0 0 1 0 .245v2.172Z" fill="#A4A094"/><path d="M62.368 5.17a9.707 9.707 0 0 1 1.88 6.332A26.319 26.319 0 0 1 60.7 23.289a26.543 26.543 0 0 1-8.533 8.922c-4.129 2.355-7.734 2.11-9.922-.214 2.126 2.6 5.916 3.059 10.2.52a26.482 26.482 0 0 0 8.539-8.918 26.257 26.257 0 0 0 3.54-11.791 9.498 9.498 0 0 0-2.157-6.638Z" fill="#3D3834"/><path d="m47.453 11.165-.555-.306.062.826 5.547 10.278.493-.55-5.547-10.248Z" fill="#756E67"/><path d="m58.332 13 .71-1.284-1.018.703-6.44 7.128.308.58 6.44-7.126Z" fill="#756E67"/><path d="M52.383 19.149a1.063 1.063 0 0 1-.277 1.01c-.277.305-.616.336-.74 0a1.002 1.002 0 0 1 .278-.98c.246-.214.74-.275.74-.03Z" fill="#756E67"/><path d="M52.632 19.272a.971.971 0 0 1-.247.979c-.277.336-.616.367-.74 0a.91.91 0 0 1 .247-.98c.278-.183.493-.244.74 0Z" fill="#9C9C9C"/><path d="m47.946 11.227-.524-.306.062.826 5.3 9.85.462-.52-5.3-9.85Z" fill="#000"/><path d="m58.362 12.97.708-1.193-.986.643-6.193 6.852.308.55 6.163-6.852Z" fill="#000"/><path d="M52.632 18.873a.972.972 0 0 1-.246.979c-.278.275-.586.336-.709 0a1.003 1.003 0 0 1 .247-.948c.277-.184.462-.245.708-.03Z" fill="#363636"/><path d="M52.91 18.996a.912.912 0 0 1-.247.948c-.277.306-.585.367-.708 0a1.002 1.002 0 0 1 .246-.948c.185-.183.585-.214.709 0Z" fill="#6D6D6D"/><path d="M79.717 224.249a32.71 32.71 0 0 0 14.745 3.51 32.706 32.706 0 0 0 14.744-3.51c8.197-4.68 8.228-12.236 0-16.916a32.797 32.797 0 0 0-14.744-3.499 32.8 32.8 0 0 0-14.745 3.499c-8.073 4.711-8.104 12.266 0 16.916Z" fill="#9AA9AD" style="mix-blend-mode:multiply"/><path d="M92.197 208.006a3.842 3.842 0 0 0-.585 1.101c0 .337-.432 1.01.246 1.499a7.727 7.727 0 0 0 4.715 2.233c3.482.673 6.841 2.417 9.244 2.539a4.315 4.315 0 0 0 2.203-.266 4.277 4.277 0 0 0 1.772-1.325c.193-.555.327-1.13.401-1.713 0 0 .585-1.529-.77-1.59-1.356-.062-6.163-.979-6.163-.979l-11.063-1.499ZM81.842 214.431a2.292 2.292 0 0 0-.832 1.223c-.154.734-.554 1.866-.246 2.111a67.484 67.484 0 0 1 4.9 4.741 6.493 6.493 0 0 0 2.808 2.226 6.555 6.555 0 0 0 3.57.405c4.376 0 5.516-2.386 5.516-2.386l-.463-2.08-7.21-1.988c-.154-.031-8.043-4.252-8.043-4.252Z" fill="#251D1D"/><path d="M99.745 205.987c1.204.186 2.389.472 3.544.856a24.307 24.307 0 0 1 6.163 3.549c.098.537.007 1.09-.256 1.569a2.396 2.396 0 0 1-1.192 1.061 8.495 8.495 0 0 1-6.41-.214c-2.804-.979-6.779-2.263-6.779-2.263s-2.588-1.53-2.588-2.05c0-.52.523-3.395.523-3.395s4.992-1.407 6.995.887Z" fill="#69401D"/><path d="M105.724 170.932a96.16 96.16 0 0 1-1.88 15.998c0 .337-3.482 19.7-3.482 19.7s0 1.284-2.927 1.743a5.55 5.55 0 0 1-2.681-.306 9.259 9.259 0 0 1-2.773-1.682l.462-13.49s.246-17.222.8-20.311c0-.673.309-1.652.556-2.814.246-1.163.585-2.723.924-4.16.34-2.247.95-4.444 1.818-6.547l4.807.582 3.821.489s.555-.489.74 2.478v1.162c.061 1.683.03 3.946-.185 7.158Z" fill="#423830"/><path d="M95.526 194.18c-.184 2.875-.492 9.39-.739 13.887a9.259 9.259 0 0 1-2.773-1.682l.431-13.49s.247-17.222.801-20.311a255.79 255.79 0 0 1 1.48-6.975 16.805 16.805 0 0 1 5.762 3.426s-2.003 11.043-2.435 12.664a70.581 70.581 0 0 0-2.526 12.481Z" fill="#C9B9B3" style="mix-blend-mode:multiply"/><path d="M90.196 213.635a26.69 26.69 0 0 0 2.865 3.364c1.079.949 4.099 3.335 4.037 3.885-.061.551-.493 1.958-3.081 2.417a10.151 10.151 0 0 1-6.41-.52 18.19 18.19 0 0 1-3.82-4.038 11.712 11.712 0 0 1-2.404-2.845 3.918 3.918 0 0 1 .185-2.447c0-.275 1.232-2.631 1.232-2.631l7.396 2.815Z" fill="#69401D"/><path d="M100.61 171.299a9.183 9.183 0 0 1-3.42 4.252s-.832 4.13-1.048 6.118c-.215 1.988-2.218 12.236-2.711 13.612-.493 1.377-2.712 18.965-3.082 19.455a7.322 7.322 0 0 1-5.33.765 6.856 6.856 0 0 1-1.85-1.102 14.53 14.53 0 0 1-1.972-1.957c.326-2.858.191-5.75-.4-8.565a64.304 64.304 0 0 1-1.11-13.215c.185-1.009.894-7.096 1.264-10.064.37-2.967-1.85-7.708-2.434-11.318a45.942 45.942 0 0 1 .4-10.094c0-.948.216-1.56.216-1.56l4.653.275 9.244.551s8.69 1.193 8.751 1.346c.062.153 0 .275 0 .703a104.615 104.615 0 0 1-1.171 10.798Z" fill="#423830"/><path d="M105.94 163.867a1 1 0 0 1-.154.458 1.758 1.758 0 0 1-.401.429 13.997 13.997 0 0 1-5.916 3.059 28.246 28.246 0 0 0-3.081 1.101 20.76 20.76 0 0 1-2.712.703l-.925.184-.986.214a25.293 25.293 0 0 1-3.728.489 6.892 6.892 0 0 1-2.096-.244 14.417 14.417 0 0 0-3.235-.857 38.91 38.91 0 0 0 .37 4.589c.104 1.308.31 2.607.616 3.884 0 .643 0 3.335.154 4.038a45 45 0 0 1-1.14 8.32 51.423 51.423 0 0 0 0 9.361c0 2.294.77 11.165.647 14.682a14.525 14.525 0 0 1-1.972-1.957c.326-2.848.19-5.729-.4-8.535a62.38 62.38 0 0 1-1.11-13.245c.185-1.009.894-7.066 1.263-10.064.37-2.997-1.849-7.708-2.434-11.318a45.942 45.942 0 0 1 .4-10.094 33.64 33.64 0 0 1 4.87-1.285l9.244.551c1.633 0 3.297.459 4.9.703 1.045.01 2.084.175 3.081.49.832.642.77 2.08 1.941 2.631.585.275 2.311 0 2.588.305.216.582.216.979.216 1.408Z" fill="#C9B9B3" style="mix-blend-mode:multiply"/><path d="M107.081 162.519a32.842 32.842 0 0 1-17.287 6.118 21.247 21.247 0 0 1-9.429-.979c-1.695-.734-1.91-1.651-1.787-1.804.123-.153-.77-3.059-.647-4.099a65.347 65.347 0 0 0-.278-11.135c-.585-3.579-.924-12.235-.924-12.235v-4.222c-.246-5.689-.585-15.141-.4-15.294.184-.153 4.683-1.958 5.423-2.417l4.992-2.753h5.361c3.807.105 7.569.849 11.124 2.203 4.9 2.11 3.421 3.579 3.421 3.579s.308 10.767 0 11.654c0 .337-.432 3.059-.74 6.118a38.65 38.65 0 0 0 1.233 12.908c.308 1.132-.216 4.13 0 5.476a25.418 25.418 0 0 1-.062 6.882Z" fill="#6FFFE9"/><path d="m107.081 155.73-1.973.917-3.081.734a11.59 11.59 0 0 1-1.14 1.163 9.591 9.591 0 0 1-2.28.52l-2.496 1.254h-1.88l-4.252.887c-.894.184-6.656.642-7.303.704-.92.342-1.798.783-2.62 1.315l.185 2.172.247 2.141c-1.695-.734-1.91-1.652-1.788-1.805.124-.153-.77-3.059-.647-4.099a65.349 65.349 0 0 0-.277-11.134c-.585-3.579-.924-12.236-.924-12.236v-4.221a39.368 39.368 0 0 1 2.588-1.132l-.308 8.229a42.812 42.812 0 0 1 0 4.466c-.185.581.77 8.289.77 8.289V161.236s2.188-1.56 2.404-1.774a9.57 9.57 0 0 1 2.496-1.989c.678-.183 7.303-3.212 7.765-3.518.462-.305 2.496-2.08 2.496-2.08s4.376-4.374 4.437-4.557c.062-.184 2.219-3.059 2.619-3.916a9.911 9.911 0 0 0 .524-2.019 13.75 13.75 0 0 1 1.572-1.499l1.047-6.117.832 3.487a38.65 38.65 0 0 0 1.233 12.908c.062 1.224-.462 4.222-.246 5.568Z" fill="#D1D1D1" style="mix-blend-mode:multiply"/><path d="M95.924 111.956c.505 1.605.765 3.275.77 4.956a4.913 4.913 0 0 1-2.466 2.446 4.962 4.962 0 0 1-3.48.215 6.562 6.562 0 0 1-3.346-1.176 6.494 6.494 0 0 1-2.232-2.739c0-.673.801-2.05.924-3.365a28.767 28.767 0 0 0 0-5.751 18.47 18.47 0 0 1 .185-4.864l5.331-.153 4.314 10.431Z" fill="#FFCDAB"/><path d="M88.346 112.018c1 1.373 2.17 2.616 3.482 3.701.862.306 3.636.948 3.728.948.093 0 1.85.214 2.681.245.832.03 2.743-1.805 2.743-1.805a28.98 28.98 0 0 0-4.992-1.101 50.194 50.194 0 0 1-7.642-1.988Z" fill="#FAD3BE" style="mix-blend-mode:multiply"/><path d="M97.93 98.069s.523 5.353.708 6.117c.16 2.278.057 4.567-.308 6.822-.462 2.416-.555 3.303-1.418 3.823a5.831 5.831 0 0 1-5.084-.306 12.293 12.293 0 0 1-4.13-3.273 27.195 27.195 0 0 1-2.187-6.332 9.872 9.872 0 0 1 0-6.454 12.863 12.863 0 0 1 4.838-3.059s6.502-2.294 7.58 2.662Z" fill="#FFCDAB"/><path d="m96.757 97.456-2.866 1.163a38.725 38.725 0 0 0-4.499.765c0 .305-.647 3.303-.8 3.456-.155.153-.74.581-.833.795-.19.632-.333 1.276-.431 1.928v1.284h-.77s0-2.11-.987-2.202c-.986-.092-1.201.918-1.263 1.04.14.621.315 1.234.524 1.835 0 0-1.787 0-2.835-5.078-1.048-5.077.185-7.983 2.712-9.33a10.905 10.905 0 0 1 8.936-.794 6.976 6.976 0 0 1 3.15 1.796 6.901 6.901 0 0 1 1.811 3.128 9.691 9.691 0 0 1-.37 3.702s-.74-3.243-.893-3.58c-.154-.336-.586.092-.586.092Z" fill="#332322"/><path d="M86.558 107.734s.216.949-.277 1.132c-.493.184-1.294-.336-1.695-1.315-.4-.979-1.17-1.468-.955-3.059.216-1.591 1.695-.337 1.972 0 .39.566.72 1.171.986 1.805l-.03 1.437ZM95.525 103.055v.153c.11.744.306 1.473.586 2.172.493 1.07 1.325 2.202.955 2.508-.37.306-1.387-.245-1.479-.153-.092.092-.062-.673-.062-.948.019-.255.019-.51 0-.765l-.554-3.457.554.49Z" fill="#FFDFC2"/><path d="M95.525 98.68c.297.997.483 2.023.555 3.06 0 .887 0 1.59-.309 1.682-.308.092-2.588 0-3.081 0-.937.184-1.848.482-2.712.887a1.526 1.526 0 0 0-.185 2.111c.74 1.07 3.082 1.101 3.267 1.009.185-.092.462.887.246 1.224-.215.336-1.787 1.774-2.68.979a15.306 15.306 0 0 1-2.836-3.763c-.462-1.07.74-2.325.956-2.631a25.257 25.257 0 0 1 1.017-3.425 29.442 29.442 0 0 1 4.252-.765l1.51-.367Z" fill="#FFDFC2"/><path d="M79.038 134.592c0 .734-.278 1.224-.308 1.407 0 1.04-2.004 2.325-2.004 2.325a17.846 17.846 0 0 0-2.341 3.059 78.726 78.726 0 0 1-5.177 6.546l-3.082 2.447-6.347 3.793h-6.163s-2.712-3.059-2.62-4.068a8.077 8.077 0 0 1 1.973-2.508c1.602-1.591 3.666-3.335 3.759-3.396.092-.061 3.975-2.477 3.975-2.477a9.385 9.385 0 0 0 1.417-1.836c.524-.917 4.16-5.231 4.253-5.628.092-.398 2.003-3.61 3.605-6.516a78.225 78.225 0 0 0 1.387-2.692 27.568 27.568 0 0 1 4.745-6.117c4.653 4.527 3.544 12.388 2.928 15.661Z" fill="#6FFFE9"/><path d="M79.039 134.593c0 .734-.278 1.223-.308 1.407 0 1.04-2.003 2.325-2.003 2.325a17.77 17.77 0 0 0-2.342 3.059 78.727 78.727 0 0 1-5.177 6.546l-3.081 2.447-6.348 3.793h-2.465a6.83 6.83 0 0 1 .215-2.111 37.374 37.374 0 0 1 4.345-.765 8.304 8.304 0 0 0 2.188-1.468c.493-.459 1.448-1.009 1.664-1.193.216-.183 3.39-2.049 3.667-2.355.277-.306 0-.765 0-1.132 0-.367.863-.367 1.14-.551.277-.183 1.387-1.07 1.387-1.07l-3.39-.306a17.329 17.329 0 0 0 3.76-.826 22.474 22.474 0 0 0 1.818-2.478c.292-.843.653-1.661 1.078-2.447a41.838 41.838 0 0 1 3.698-2.783l.154-.092ZM67.144 134.286l-2.157 2.111.278 1.805v1.315h-1.233l.247 1.101-1.079.643-1.88 1.988-1.232 3.059a6.448 6.448 0 0 1-7.18 1.285c1.633-1.591 3.667-3.335 3.76-3.396.092-.061 3.975-2.478 3.975-2.478a9.349 9.349 0 0 0 1.417-1.835c.524-.918 4.16-5.231 4.252-5.628.093-.398 2.003-3.61 3.606-6.516l-2.774 6.546Z" fill="#D1D1D1" style="mix-blend-mode:multiply"/><path d="m47.577 159.614-1.017-.581v-11.074l6.872-11.777 9.707-5.567 1.017.581 5.854 14.377-6.871 11.777-15.562 2.264Z" fill="#E1F0F0"/><path d="M47.578 148.54v11.074l6.872 3.884 1.17-.673 6.01-3.456 2.526-1.438.555-.948 4.406-7.525 1.91-3.304v-11.073l-6.87-3.885-1.942 1.132-6.04 3.457-1.725.979-1.14 1.927-4.376 7.525-1.356 2.324Z" fill="#D3E0DD"/><path d="m63.695 157.472 6.687-11.471v-10.522l-6.224-3.518-9.245 5.292-6.686 11.471v10.522l6.224 3.518 9.244-5.292Z" fill="#E8203D"/><path d="m54.202 148.938-.585 1.805a3.69 3.69 0 0 0-1.726.428.574.574 0 0 0-.308.429c0 .703 2.588-1.377 2.588.673a4.078 4.078 0 0 1-.68 1.777c-.364.531-.849.97-1.415 1.282a3.497 3.497 0 0 1-2.496.703l.616-1.774a2.854 2.854 0 0 0 1.91-.337.726.726 0 0 0 .37-.55c0-.734-2.557 1.407-2.557-.581.091-.639.33-1.248.7-1.779.369-.53.857-.969 1.426-1.28a3.872 3.872 0 0 1 2.157-.796ZM57.316 147.807v4.16l-1.633 1.07v-4.16l-1.417.918v-1.468l4.468-2.876v1.377l-1.418.979ZM64.126 144.779a6.086 6.086 0 0 1-.828 2.64 6.138 6.138 0 0 1-1.915 2.009c-1.571 1.01-2.711.551-2.711-1.132a6.09 6.09 0 0 1 .84-2.568 6.144 6.144 0 0 1 1.871-1.959c1.603-1.101 2.743-.642 2.743 1.01Zm-3.76 2.447c0 .764.494 1.009 1.048.642a2.604 2.604 0 0 0 1.017-1.988c0-.765-.462-1.04-1.017-.673a2.604 2.604 0 0 0-1.047 2.019ZM66.899 140.19c1.294-.826 2.034-.582 2.034.703a4.134 4.134 0 0 1-.57 1.987 4.18 4.18 0 0 1-1.464 1.47l-.678.428v1.468l-1.633 1.04v-5.598l2.311-1.498Zm-.678 3.058.616-.397a1.194 1.194 0 0 0 .555-1.04c0-.398-.216-.52-.555-.276l-.616.368v1.345Z" fill="#E9E9E9"/><path d="m49.458 156.494-.37.184c.025.367.025.734 0 1.101 0 .275-.832.673-1.048.826l-.554.367-.278.214v.428s-.986-.55-1.201-.55a4.487 4.487 0 0 1-.555-.704s.246-.703.246-.795c0-.092-.493-.398-.493-.398l-.431-.948v-.398a5.3 5.3 0 0 1-.524-.764 5.739 5.739 0 0 1 0-1.346l-.4-.398a4.642 4.642 0 0 1 0-1.315 1.17 1.17 0 0 1 .246-.337 2.003 2.003 0 0 0 0-.275c.088-.468.212-.928.37-1.377 0-.214.524-.917.678-.917l1.386.214c.041.397.041.796 0 1.193 0 .183-.184.673-.246.918l.986.183c.479-.004.956.058 1.417.184.493 0 .802.489.74.673v.52c.225.193.386.448.462.734.046.294-.008.596-.154.856a.491.491 0 0 0-.185.245c.117.228.18.479.185.734a4.494 4.494 0 0 1-.277.459v.489Z" fill="#FFCDAB"/><path d="m49.704 156.218-.246.275-.37.184-1.972.489-1.202.612.277.765.832.275h.524l-.277.214v.429s-1.048-.398-1.264-.398a4.487 4.487 0 0 1-.554-.704s.246-.703.246-.795c0-.092-.493-.398-.493-.398l-.431-.948v-.398a5.307 5.307 0 0 1-.524-.764 5.739 5.739 0 0 1 0-1.346l-.4-.398a4.642 4.642 0 0 1 0-1.315 1.17 1.17 0 0 1 .246-.337 2.003 2.003 0 0 0 0-.275l.339.153 1.048-.184.863-.275v.337l-1.264.367-.894.306-.339.55.432.795h.647l2.866-.336h1.54v.214H47.98l-3.082.49-.647.52v.856l.925.306 2.28-.551a12.828 12.828 0 0 1 1.818 0h.308a.491.491 0 0 0-.185.245l-1.695.214-2.804.612v.428c.116.198.218.402.308.612h.617s2.157-.428 2.25-.52a12.399 12.399 0 0 1 1.632-.306Z" fill="#FAD3BE" style="mix-blend-mode:multiply"/><path d="M111.332 146.827a135.093 135.093 0 0 1-11.309 9.85 53.557 53.557 0 0 1-5.762 1.774s-.308-.52-.616-1.193l-.37-.917a3.526 3.526 0 0 1-.216-2.295c.903-.922 1.86-1.79 2.866-2.6 0 0 7.242-7.463 7.765-8.32a34.723 34.723 0 0 0 1.079-7.28c0-.704.277-4.252.462-7.25 0-1.866.216-3.518.277-4.129 0-1.499.555-7.495-2.526-8.596a7.423 7.423 0 0 1 3.197 1.445 7.344 7.344 0 0 1 2.164 2.746c.401 1.132.925 2.447 1.479 3.976a36.48 36.48 0 0 1 2.558 11.349 30.08 30.08 0 0 1-1.048 11.44Z" fill="#6FFFE9"/><path d="M111.332 146.828a135.437 135.437 0 0 1-11.309 9.85 53.805 53.805 0 0 1-5.762 1.774s-.308-.52-.617-1.193l1.942-.367 2.557-1.04.463.153 2.126-.857 1.695-3.059v1.316l2.434-2.142 2.619-1.927 3.082-3.059s1.14-4.588 1.171-4.894c.03-.306 0-7.861.246-8.565a85.72 85.72 0 0 0-2.064-8.963 36.48 36.48 0 0 1 2.557 11.349 30.104 30.104 0 0 1-1.14 11.624Z" fill="#D1D1D1" style="mix-blend-mode:multiply"/><path d="m104.77 142.515-.924.52c.558-2.358.868-4.767.924-7.189 0-.703.277-4.252.462-7.249l.247 9.941a8.55 8.55 0 0 0-.616 2.08c.024.634-.006 1.268-.093 1.897Z" fill="#D1D1D1" style="mix-blend-mode:multiply"/><path d="M94.508 157.718a3.742 3.742 0 0 1-.924.459l-4.283.306c-.74 0-7.15-.153-7.15-.153h-2.464c-.154 0-.34-.765-.34-.765.38-.075.753-.188 1.11-.337.28-.137.583-.22.894-.244l2.434-.734h2.835l.955-.337c.832-.306 1.972-.734 2.219-.887a22.383 22.383 0 0 1 4.16-1.285c.4 0 .74 2.111.74 2.111v.979c0 .459 0 .764-.186.887Z" fill="#FFCDAB"/><path d="M94.508 157.718a3.742 3.742 0 0 1-.924.459l-4.283.306c-.74 0-7.15-.153-7.15-.153h-2.464c-.154 0-.34-.765-.34-.765.38-.075.753-.188 1.11-.337.28-.137.583-.22.894-.244l2.434-.734h2.835l.955-.337.555.245 2.927.245c-.185.55-1.602.764-2.064.795a4.193 4.193 0 0 1-1.387-.459l-1.017-.275h-3.081l-2.157.734-.832.703h9.46l3.358-.397 1.541-.49c-.123.214-.185.581-.37.704Z" fill="#FAD3BE" style="mix-blend-mode:multiply"/><path d="m93.707 155.791-3.451.856a15.05 15.05 0 0 1-1.88.245 10.294 10.294 0 0 1-1.726-.918l.74-1.04 2.527-.489 1.972-.979 1.417-.184.555.612s.678 1.254-.154 1.897Z" fill="#FFCDAB"/></g><defs><clipPath id="a"><path fill="#fff" d="M0 0h283v324H0z"/></clipPath></defs></svg>